<svg width="901" height="503" fill="none" xmlns="http://www.w3.org/2000/svg"><g filter="url(#filter0_d_309_883)"><path d="M54.007 451.455c-24.192-13.967-32.48-44.9-18.513-69.092" stroke="#00ADD7" stroke-width="4.549"/></g><g filter="url(#filter1_d_309_883)"><path d="M35.494 382.363a50.376 50.376 0 0115.974-16.959" stroke="#00ADD7" stroke-width="18.197"/></g><g filter="url(#filter2_d_309_883)"><path d="M73.573 357.395a50.811 50.811 0 00-22.106 8.009" stroke="#00ADD7" stroke-width="18.197"/></g><g filter="url(#filter3_d_309_883)"><path d="M104.586 363.85a50.354 50.354 0 00-31.013-6.455" stroke="#00ADD7" stroke-width="18.197"/></g><g filter="url(#filter4_d_309_883)"><path d="M104.586 363.85c24.192 13.967 32.48 44.9 18.513 69.092-13.967 24.192-44.9 32.48-69.092 18.513" stroke="#00ADD7" stroke-width="18.197"/></g><g filter="url(#filter5_d_309_883)"><path d="M195.474 205.629c-28.959-28.959-28.959-75.911 0-104.87" stroke="#814AF6" stroke-width="4.549"/></g><g filter="url(#filter6_d_309_883)"><path d="M195.474 100.759c8.451-8.45 18.435-14.436 29.056-17.954" stroke="#7653F4" stroke-width="4.549"/></g><g filter="url(#filter7_d_309_883)"><path d="M258.873 79.85a74.478 74.478 0 00-34.343 2.955" stroke="#01ADD7" stroke-width="36.393"/></g><g filter="url(#filter8_d_309_883)"><path d="M300.344 100.76c-11.683-11.683-26.294-18.653-41.471-20.91" stroke="#01ADD7" stroke-width="36.393"/></g><g filter="url(#filter9_d_309_883)"><path d="M300.344 100.759c28.959 28.959 28.959 75.911 0 104.87-28.959 28.959-75.911 28.959-104.87 0" stroke="#BFF9CF" stroke-width="36.393"/></g><g filter="url(#filter10_d_309_883)" fill="#BFF9CF"><rect x="810.262" y="230.668" width="35.956" height="93.186" rx="9.098"/><rect x="825.729" y="209.569" width="4.549" height="126.593" rx="2.275"/><rect x="737.913" y="284.801" width="35.956" height="50.718" rx="9.098"/><rect x="753.38" y="276.348" width="4.549" height="67.624" rx="2.275"/><rect x="691.511" y="346.953" width="35.956" height="81.885" rx="9.098"/><rect x="706.979" y="328.757" width="4.549" height="118.278" rx="2.275"/><rect x="618.761" y="265.967" width="35.956" height="87.912" rx="9.098"/><rect x="634.229" y="239.594" width="4.549" height="131.867" rx="2.275"/><rect x="546.412" y="360.865" width="35.956" height="59.171" rx="9.098"/><rect x="561.879" y="352.412" width="4.549" height="76.077" rx="2.275"/><rect x="474.062" y="320.188" width="35.956" height="67.624" rx="9.098"/><rect x="489.529" y="303.282" width="4.549" height="101.436" rx="2.275"/></g><g filter="url(#filter11_d_309_883)"><path d="M277.288 415.733l30.771-100.887c3.07-10.065 13.41-16.035 23.661-13.661l84.548 19.578c10.252 2.374 20.591-3.595 23.661-13.66l25.319-83.01c3.07-10.065 13.409-16.035 23.661-13.661l84.548 19.579c10.251 2.374 20.591-3.596 23.661-13.661l25.318-83.01c3.07-10.065 13.41-16.035 23.661-13.661l84.548 19.579c10.252 2.374 20.591-3.596 23.661-13.661L785.078 24.71" stroke="#814AF6" stroke-width="12.738" stroke-linecap="round"/></g><g filter="url(#filter12_biii_309_883)"><mask id="a" fill="#fff"><path fill-rule="evenodd" clip-rule="evenodd" d="M724.372 58c-10.05 0-18.197 8.147-18.197 18.197 0 10.05 8.147 18.196 18.197 18.196v317.94c0 20.1 16.293 36.394 36.393 36.394 20.099 0 36.393-16.294 36.393-36.394V94.393c10.05 0 18.197-8.147 18.197-18.196 0-10.05-8.147-18.197-18.197-18.197h-72.786z"/></mask><path fill-rule="evenodd" clip-rule="evenodd" d="M724.372 58c-10.05 0-18.197 8.147-18.197 18.197 0 10.05 8.147 18.196 18.197 18.196v317.94c0 20.1 16.293 36.394 36.393 36.394 20.099 0 36.393-16.294 36.393-36.394V94.393c10.05 0 18.197-8.147 18.197-18.196 0-10.05-8.147-18.197-18.197-18.197h-72.786z" fill="#fff" fill-opacity=".1"/><path d="M724.372 94.393h7.278v-7.278h-7.278v7.278zm0 317.94h-7.279 7.279zm72.786 0h-7.279 7.279zm0-317.94v-7.278h-7.279v7.278h7.279zm-83.704-18.196c0-6.03 4.888-10.918 10.918-10.918V50.72c-14.07 0-25.476 11.406-25.476 25.476h14.558zm10.918 10.918c-6.03 0-10.918-4.889-10.918-10.918h-14.558c0 14.07 11.406 25.475 25.476 25.475V87.115zm7.278 325.218V94.393h-14.557v317.94h14.557zm29.115 29.115c-16.08 0-29.115-13.035-29.115-29.115h-14.557c0 24.12 19.553 43.672 43.672 43.672v-14.557zm29.114-29.115c0 16.08-13.035 29.115-29.114 29.115v14.557c24.119 0 43.672-19.552 43.672-43.672h-14.558zm0-317.94v317.94h14.558V94.393h-14.558zm18.197-18.196c0 6.03-4.888 10.918-10.918 10.918v14.557c14.07 0 25.475-11.406 25.475-25.475h-14.557zm-10.918-10.918c6.03 0 10.918 4.888 10.918 10.918h14.557c0-14.07-11.405-25.476-25.475-25.476V65.28zm-72.786 0h72.786V50.72h-72.786v14.56z" fill="url(#paint0_linear_309_883)" fill-opacity=".1" mask="url(#a)"/></g><g filter="url(#filter13_biii_309_883)"><mask id="b" fill="#fff"><path fill-rule="evenodd" clip-rule="evenodd" d="M499.857 58c-10.05 0-18.197 8.147-18.197 18.197 0 10.05 8.147 18.196 18.197 18.196h9.098v160.064c-5.783 3.93-10.861 9.25-14.735 15.96l-60.871 105.431c-18.699 32.389 4.675 72.875 42.074 72.875h121.742c37.399 0 60.774-40.486 42.074-72.874l-60.871-105.432c-3.617-6.266-8.284-11.319-13.595-15.161V94.393h7.87c10.05 0 18.197-8.147 18.197-18.196 0-10.05-8.147-18.197-18.197-18.197h-72.786z"/></mask><path fill-rule="evenodd" clip-rule="evenodd" d="M499.857 58c-10.05 0-18.197 8.147-18.197 18.197 0 10.05 8.147 18.196 18.197 18.196h9.098v160.064c-5.783 3.93-10.861 9.25-14.735 15.96l-60.871 105.431c-18.699 32.389 4.675 72.875 42.074 72.875h121.742c37.399 0 60.774-40.486 42.074-72.874l-60.871-105.432c-3.617-6.266-8.284-11.319-13.595-15.161V94.393h7.87c10.05 0 18.197-8.147 18.197-18.196 0-10.05-8.147-18.197-18.197-18.197h-72.786z" fill="#fff" fill-opacity=".1"/><path d="M508.955 94.393h7.279v-7.278h-7.279v7.278zm0 160.064l4.091 6.02 3.188-2.166v-3.854h-7.279zm-14.735 15.96l6.304 3.639-6.304-3.639zm-60.871 105.431l6.304 3.64-6.304-3.64zm205.89.001l-6.303 3.639 6.303-3.639zm-60.871-105.432l6.304-3.64-6.304 3.64zm-13.595-15.161h-7.279v3.718l3.013 2.18 4.266-5.898zm0-160.863v-7.278h-7.279v7.278h7.279zm-75.834-18.196c0-6.03 4.888-10.918 10.918-10.918V50.72c-14.07 0-25.476 11.406-25.476 25.476h14.558zm10.918 10.918c-6.03 0-10.918-4.889-10.918-10.918h-14.558c0 14.07 11.406 25.475 25.476 25.475V87.115zm9.098 0h-9.098v14.557h9.098V87.115zm-7.279 7.278v160.064h14.558V94.393h-14.558zm3.188 154.044c-6.682 4.541-12.52 10.672-16.947 18.34l12.607 7.279c3.321-5.751 7.639-10.26 12.522-13.579l-8.182-12.04zm-16.947 18.34l-60.871 105.432 12.607 7.279 60.871-105.432-12.607-7.279zm-60.871 105.432c-21.501 37.241 5.375 83.792 48.377 83.792v-14.557c-31.796 0-51.668-34.42-35.77-61.956l-12.607-7.279zm48.377 83.792h121.742v-14.557H475.423v14.557zm121.742 0c43.002 0 69.879-46.551 48.378-83.792l-12.607 7.279c15.898 27.536-3.975 61.956-35.771 61.956v14.557zm48.378-83.792l-60.871-105.432-12.607 7.279 60.871 105.432 12.607-7.279zm-60.871-105.432c-4.133-7.158-9.497-12.98-15.633-17.418l-8.532 11.795c4.485 3.244 8.456 7.53 11.558 12.902l12.607-7.279zm-12.621-11.521V94.393h-14.557v160.863h14.557zm.592-168.142h-7.87v14.558h7.87V87.115zm10.918-10.917c0 6.03-4.888 10.918-10.918 10.918v14.557c14.07 0 25.475-11.406 25.475-25.475h-14.557zm-10.918-10.918c6.03 0 10.918 4.888 10.918 10.918h14.557c0-14.07-11.405-25.476-25.475-25.476V65.28zm-72.786 0h72.786V50.72h-72.786v14.56z" fill="url(#paint1_linear_309_883)" fill-opacity=".1" mask="url(#b)"/></g><g filter="url(#filter14_biii_309_883)"><mask id="c" fill="#fff"><path fill-rule="evenodd" clip-rule="evenodd" d="M5.646 115.075c-7.266 7.266-7.266 19.047 0 26.313 7.264 7.265 19.042 7.266 26.309.004l66.266 66.266c-37.229 60.897-29.494 141.53 23.203 194.227 61.761 61.761 161.897 61.761 223.658 0 61.762-61.762 61.762-161.897 0-223.659-52.7-52.7-133.34-60.432-194.238-23.196L84.58 88.766l.004-.004c7.266-7.266 7.266-19.046 0-26.313-7.266-7.265-19.047-7.265-26.313 0L5.646 115.076z"/></mask><path fill-rule="evenodd" clip-rule="evenodd" d="M5.646 115.075c-7.266 7.266-7.266 19.047 0 26.313 7.264 7.265 19.042 7.266 26.309.004l66.266 66.266c-37.229 60.897-29.494 141.53 23.203 194.227 61.761 61.761 161.897 61.761 223.658 0 61.762-61.762 61.762-161.897 0-223.659-52.7-52.7-133.34-60.432-194.238-23.196L84.58 88.766l.004-.004c7.266-7.266 7.266-19.046 0-26.313-7.266-7.265-19.047-7.265-26.313 0L5.646 115.076z" fill="#fff" fill-opacity=".1"/><path d="M5.646 141.388l-5.147 5.147 5.147-5.147zm0-26.313l5.146 5.147-5.146-5.147zm26.308 26.317l5.147-5.147-5.145-5.146-5.147 5.144 5.145 5.149zm66.267 66.266l6.21 3.796 2.989-4.89-4.053-4.053-5.147 5.147zm23.203 194.227l5.146-5.147-5.146 5.147zm223.658-223.659l5.147-5.147-5.147 5.147zM150.844 155.03l-5.147 5.147 4.053 4.053 4.891-2.99-3.797-6.21zM84.58 88.766l-5.15-5.144-5.141 5.147 5.144 5.144 5.147-5.147zm.004-.004l-5.147-5.147-.002.003 5.149 5.144zm0-26.313l-5.147 5.147 5.147-5.147zm-26.313 0l5.147 5.147-5.147-5.147zm-47.479 73.792c-4.423-4.424-4.423-11.596 0-16.019L.5 109.928c-10.109 10.109-10.109 26.498 0 36.607l10.293-10.294zm16.017.002c-4.424 4.422-11.594 4.421-16.017-.002L.5 146.535c10.107 10.106 26.492 10.108 36.6.005l-10.29-10.297zm-.001 10.295l66.266 66.266 10.293-10.293-66.266-66.266-10.293 10.293zm65.202 57.323c-38.941 63.7-30.862 148.041 24.267 203.17l10.293-10.293c-50.264-50.265-57.654-127.189-22.139-185.284l-12.42-7.593zm24.267 203.17c64.604 64.604 169.348 64.604 233.952 0l-10.294-10.293c-58.919 58.919-154.446 58.919-213.365 0l-10.293 10.293zm233.952 0c64.604-64.604 64.604-169.348 0-233.952l-10.294 10.294c58.92 58.919 58.92 154.446 0 213.365l10.294 10.293zm0-233.952c-55.132-55.132-139.481-63.209-203.182-24.259l7.594 12.42c58.096-35.523 135.026-28.135 185.294 22.133l10.294-10.294zM155.99 149.883L89.727 83.619 79.433 93.913l66.264 66.264 10.293-10.294zM79.434 83.618l-.003.004L89.729 93.91l.004-.004-10.299-10.288zm.003-16.022c4.424 4.424 4.424 11.596 0 16.02l10.294 10.293c10.108-10.109 10.108-26.498 0-36.606L79.437 67.596zm-16.02 0c4.424-4.423 11.596-4.423 16.02 0l10.294-10.293c-10.109-10.109-26.498-10.109-36.607 0l10.294 10.293zm-52.625 52.626l52.626-52.626-10.294-10.293L.5 109.928l10.293 10.294z" fill="url(#paint2_linear_309_883)" fill-opacity=".1" mask="url(#c)"/></g><defs><filter id="filter0_d_309_883" x="6.516" y="361.308" width="68.546" height="112.035" filterUnits="userSpaceOnUse" color-interpolation-filters="sRGB"><feFlood flood-opacity="0" result="BackgroundImageFix"/><feColorMatrix in="SourceAlpha" values="0 0 0 0 0 0 0 0 0 0 0 0 0 0 0 0 0 0 127 0" result="hardAlpha"/><feOffset/><feGaussianBlur stdDeviation="9.959"/><feComposite in2="hardAlpha" operator="out"/><feColorMatrix values="0 0 0 0 0 0 0 0 0 0.678431 0 0 0 0 0.843137 0 0 0 1 0"/><feBlend in2="BackgroundImageFix" result="effect1_dropShadow_309_883"/><feBlend in="SourceGraphic" in2="effect1_dropShadow_309_883" result="shape"/></filter><filter id="filter1_d_309_883" x="7.696" y="337.885" width="68.688" height="68.946" filterUnits="userSpaceOnUse" color-interpolation-filters="sRGB"><feFlood flood-opacity="0" result="BackgroundImageFix"/><feColorMatrix in="SourceAlpha" values="0 0 0 0 0 0 0 0 0 0 0 0 0 0 0 0 0 0 127 0" result="hardAlpha"/><feOffset/><feGaussianBlur stdDeviation="9.959"/><feComposite in2="hardAlpha" operator="out"/><feColorMatrix values="0 0 0 0 0 0 0 0 0 0.678431 0 0 0 0 0.843137 0 0 0 1 0"/><feBlend in2="BackgroundImageFix" result="effect1_dropShadow_309_883"/><feBlend in="SourceGraphic" in2="effect1_dropShadow_309_883" result="shape"/></filter><filter id="filter2_d_309_883" x="26.55" y="328.438" width="67.977" height="64.486" filterUnits="userSpaceOnUse" color-interpolation-filters="sRGB"><feFlood flood-opacity="0" result="BackgroundImageFix"/><feColorMatrix in="SourceAlpha" values="0 0 0 0 0 0 0 0 0 0 0 0 0 0 0 0 0 0 127 0" result="hardAlpha"/><feOffset/><feGaussianBlur stdDeviation="9.959"/><feComposite in2="hardAlpha" operator="out"/><feColorMatrix values="0 0 0 0 0 0 0 0 0 0.678431 0 0 0 0 0.843137 0 0 0 1 0"/><feBlend in2="BackgroundImageFix" result="effect1_dropShadow_309_883"/><feBlend in="SourceGraphic" in2="effect1_dropShadow_309_883" result="shape"/></filter><filter id="filter3_d_309_883" x="52.618" y="328.049" width="76.435" height="63.598" filterUnits="userSpaceOnUse" color-interpolation-filters="sRGB"><feFlood flood-opacity="0" result="BackgroundImageFix"/><feColorMatrix in="SourceAlpha" values="0 0 0 0 0 0 0 0 0 0 0 0 0 0 0 0 0 0 127 0" result="hardAlpha"/><feOffset/><feGaussianBlur stdDeviation="9.959"/><feComposite in2="hardAlpha" operator="out"/><feColorMatrix values="0 0 0 0 0 0 0 0 0 0.678431 0 0 0 0 0.843137 0 0 0 1 0"/><feBlend in2="BackgroundImageFix" result="effect1_dropShadow_309_883"/><feBlend in="SourceGraphic" in2="effect1_dropShadow_309_883" result="shape"/></filter><filter id="filter4_d_309_883" x="29.54" y="336.052" width="129.362" height="151.205" filterUnits="userSpaceOnUse" color-interpolation-filters="sRGB"><feFlood flood-opacity="0" result="BackgroundImageFix"/><feColorMatrix in="SourceAlpha" values="0 0 0 0 0 0 0 0 0 0 0 0 0 0 0 0 0 0 127 0" result="hardAlpha"/><feOffset/><feGaussianBlur stdDeviation="9.959"/><feComposite in2="hardAlpha" operator="out"/><feColorMatrix values="0 0 0 0 0 0 0 0 0 0.678431 0 0 0 0 0.843137 0 0 0 1 0"/><feBlend in2="BackgroundImageFix" result="effect1_dropShadow_309_883"/><feBlend in="SourceGraphic" in2="effect1_dropShadow_309_883" result="shape"/></filter><filter id="filter5_d_309_883" x="144.185" y="71.856" width="80.192" height="162.676" filterUnits="userSpaceOnUse" color-interpolation-filters="sRGB"><feFlood flood-opacity="0" result="BackgroundImageFix"/><feColorMatrix in="SourceAlpha" values="0 0 0 0 0 0 0 0 0 0 0 0 0 0 0 0 0 0 127 0" result="hardAlpha"/><feOffset/><feGaussianBlur stdDeviation="13.647"/><feComposite in2="hardAlpha" operator="out"/><feColorMatrix values="0 0 0 0 0.505882 0 0 0 0 0.290196 0 0 0 0 0.964706 0 0 0 1 0"/><feBlend in2="BackgroundImageFix" result="effect1_dropShadow_309_883"/><feBlend in="SourceGraphic" in2="effect1_dropShadow_309_883" result="shape"/></filter><filter id="filter6_d_309_883" x="166.571" y="53.351" width="85.969" height="76.312" filterUnits="userSpaceOnUse" color-interpolation-filters="sRGB"><feFlood flood-opacity="0" result="BackgroundImageFix"/><feColorMatrix in="SourceAlpha" values="0 0 0 0 0 0 0 0 0 0 0 0 0 0 0 0 0 0 127 0" result="hardAlpha"/><feOffset/><feGaussianBlur stdDeviation="13.647"/><feComposite in2="hardAlpha" operator="out"/><feColorMatrix values="0 0 0 0 0.505882 0 0 0 0 0.290196 0 0 0 0 0.960784 0 0 0 1 0"/><feBlend in2="BackgroundImageFix" result="effect1_dropShadow_309_883"/><feBlend in="SourceGraphic" in2="effect1_dropShadow_309_883" result="shape"/></filter><filter id="filter7_d_309_883" x="191.513" y="33.549" width="97.331" height="93.825" filterUnits="userSpaceOnUse" color-interpolation-filters="sRGB"><feFlood flood-opacity="0" result="BackgroundImageFix"/><feColorMatrix in="SourceAlpha" values="0 0 0 0 0 0 0 0 0 0 0 0 0 0 0 0 0 0 127 0" result="hardAlpha"/><feOffset/><feGaussianBlur stdDeviation="13.647"/><feComposite in2="hardAlpha" operator="out"/><feColorMatrix values="0 0 0 0 0.00392157 0 0 0 0 0.678431 0 0 0 0 0.843137 0 0 0 1 0"/><feBlend in2="BackgroundImageFix" result="effect1_dropShadow_309_883"/><feBlend in="SourceGraphic" in2="effect1_dropShadow_309_883" result="shape"/></filter><filter id="filter8_d_309_883" x="228.902" y="34.557" width="111.603" height="106.364" filterUnits="userSpaceOnUse" color-interpolation-filters="sRGB"><feFlood flood-opacity="0" result="BackgroundImageFix"/><feColorMatrix in="SourceAlpha" values="0 0 0 0 0 0 0 0 0 0 0 0 0 0 0 0 0 0 127 0" result="hardAlpha"/><feOffset/><feGaussianBlur stdDeviation="13.647"/><feComposite in2="hardAlpha" operator="out"/><feColorMatrix values="0 0 0 0 0 0 0 0 0 0.678431 0 0 0 0 0.843137 0 0 0 1 0"/><feBlend in2="BackgroundImageFix" result="effect1_dropShadow_309_883"/><feBlend in="SourceGraphic" in2="effect1_dropShadow_309_883" result="shape"/></filter><filter id="filter9_d_309_883" x="155.312" y="60.598" width="212.242" height="212.242" filterUnits="userSpaceOnUse" color-interpolation-filters="sRGB"><feFlood flood-opacity="0" result="BackgroundImageFix"/><feColorMatrix in="SourceAlpha" values="0 0 0 0 0 0 0 0 0 0 0 0 0 0 0 0 0 0 127 0" result="hardAlpha"/><feOffset/><feGaussianBlur stdDeviation="13.647"/><feComposite in2="hardAlpha" operator="out"/><feColorMatrix values="0 0 0 0 0.74902 0 0 0 0 0.976471 0 0 0 0 0.811765 0 0 0 1 0"/><feBlend in2="BackgroundImageFix" result="effect1_dropShadow_309_883"/><feBlend in="SourceGraphic" in2="effect1_dropShadow_309_883" result="shape"/></filter><filter id="filter10_d_309_883" x="430.754" y="166.261" width="458.773" height="324.081" filterUnits="userSpaceOnUse" color-interpolation-filters="sRGB"><feFlood flood-opacity="0" result="BackgroundImageFix"/><feColorMatrix in="SourceAlpha" values="0 0 0 0 0 0 0 0 0 0 0 0 0 0 0 0 0 0 127 0" result="hardAlpha"/><feOffset/><feGaussianBlur stdDeviation="21.654"/><feComposite in2="hardAlpha" operator="out"/><feColorMatrix values="0 0 0 0 0.74902 0 0 0 0 0.976471 0 0 0 0 0.811765 0 0 0 1 0"/><feBlend in2="BackgroundImageFix" result="effect1_dropShadow_309_883"/><feBlend in="SourceGraphic" in2="effect1_dropShadow_309_883" result="shape"/></filter><filter id="filter11_d_309_883" x="252.721" y=".143" width="556.924" height="440.157" filterUnits="userSpaceOnUse" color-interpolation-filters="sRGB"><feFlood flood-opacity="0" result="BackgroundImageFix"/><feColorMatrix in="SourceAlpha" values="0 0 0 0 0 0 0 0 0 0 0 0 0 0 0 0 0 0 127 0" result="hardAlpha"/><feOffset/><feGaussianBlur stdDeviation="9.098"/><feComposite in2="hardAlpha" operator="out"/><feColorMatrix values="0 0 0 0 0.505882 0 0 0 0 0.290196 0 0 0 0 0.964706 0 0 0 1 0"/><feBlend in2="BackgroundImageFix" result="effect1_dropShadow_309_883"/><feBlend in="SourceGraphic" in2="effect1_dropShadow_309_883" result="shape"/></filter><filter id="filter12_biii_309_883" x="678.88" y="30.705" width="163.769" height="445.316" filterUnits="userSpaceOnUse" color-interpolation-filters="sRGB"><feFlood flood-opacity="0" result="BackgroundImageFix"/><feGaussianBlur in="BackgroundImage" stdDeviation="13.647"/><feComposite in2="SourceAlpha" operator="in" result="effect1_backgroundBlur_309_883"/><feBlend in="SourceGraphic" in2="effect1_backgroundBlur_309_883" result="shape"/><feColorMatrix in="SourceAlpha" values="0 0 0 0 0 0 0 0 0 0 0 0 0 0 0 0 0 0 127 0" result="hardAlpha"/><feOffset dy="2.729"/><feGaussianBlur stdDeviation="1.365"/><feComposite in2="hardAlpha" operator="arithmetic" k2="-1" k3="1"/><feColorMatrix values="0 0 0 0 1 0 0 0 0 1 0 0 0 0 1 0 0 0 0.08 0"/><feBlend in2="shape" result="effect2_innerShadow_309_883"/><feColorMatrix in="SourceAlpha" values="0 0 0 0 0 0 0 0 0 0 0 0 0 0 0 0 0 0 127 0" result="hardAlpha"/><feOffset dy="3.639"/><feGaussianBlur stdDeviation="1.82"/><feComposite in2="hardAlpha" operator="arithmetic" k2="-1" k3="1"/><feColorMatrix values="0 0 0 0 1 0 0 0 0 1 0 0 0 0 1 0 0 0 0.1 0"/><feBlend in2="effect2_innerShadow_309_883" result="effect3_innerShadow_309_883"/><feColorMatrix in="SourceAlpha" values="0 0 0 0 0 0 0 0 0 0 0 0 0 0 0 0 0 0 127 0" result="hardAlpha"/><feOffset dy=".91"/><feGaussianBlur stdDeviation=".455"/><feComposite in2="hardAlpha" operator="arithmetic" k2="-1" k3="1"/><feColorMatrix values="0 0 0 0 1 0 0 0 0 1 0 0 0 0 1 0 0 0 0.15 0"/><feBlend in2="effect3_innerShadow_309_883" result="effect4_innerShadow_309_883"/></filter><filter id="filter13_biii_309_883" x="399.473" y="30.705" width="273.642" height="445.312" filterUnits="userSpaceOnUse" color-interpolation-filters="sRGB"><feFlood flood-opacity="0" result="BackgroundImageFix"/><feGaussianBlur in="BackgroundImage" stdDeviation="13.647"/><feComposite in2="SourceAlpha" operator="in" result="effect1_backgroundBlur_309_883"/><feBlend in="SourceGraphic" in2="effect1_backgroundBlur_309_883" result="shape"/><feColorMatrix in="SourceAlpha" values="0 0 0 0 0 0 0 0 0 0 0 0 0 0 0 0 0 0 127 0" result="hardAlpha"/><feOffset dy="2.729"/><feGaussianBlur stdDeviation="1.365"/><feComposite in2="hardAlpha" operator="arithmetic" k2="-1" k3="1"/><feColorMatrix values="0 0 0 0 1 0 0 0 0 1 0 0 0 0 1 0 0 0 0.08 0"/><feBlend in2="shape" result="effect2_innerShadow_309_883"/><feColorMatrix in="SourceAlpha" values="0 0 0 0 0 0 0 0 0 0 0 0 0 0 0 0 0 0 127 0" result="hardAlpha"/><feOffset dy="3.639"/><feGaussianBlur stdDeviation="1.82"/><feComposite in2="hardAlpha" operator="arithmetic" k2="-1" k3="1"/><feColorMatrix values="0 0 0 0 1 0 0 0 0 1 0 0 0 0 1 0 0 0 0.1 0"/><feBlend in2="effect2_innerShadow_309_883" result="effect3_innerShadow_309_883"/><feColorMatrix in="SourceAlpha" values="0 0 0 0 0 0 0 0 0 0 0 0 0 0 0 0 0 0 127 0" result="hardAlpha"/><feOffset dy=".91"/><feGaussianBlur stdDeviation=".455"/><feComposite in2="hardAlpha" operator="arithmetic" k2="-1" k3="1"/><feColorMatrix values="0 0 0 0 1 0 0 0 0 1 0 0 0 0 1 0 0 0 0.15 0"/><feBlend in2="effect3_innerShadow_309_883" result="effect4_innerShadow_309_883"/></filter><filter id="filter14_biii_309_883" x="-27.099" y="29.705" width="445.797" height="445.796" filterUnits="userSpaceOnUse" color-interpolation-filters="sRGB"><feFlood flood-opacity="0" result="BackgroundImageFix"/><feGaussianBlur in="BackgroundImage" stdDeviation="13.647"/><feComposite in2="SourceAlpha" operator="in" result="effect1_backgroundBlur_309_883"/><feBlend in="SourceGraphic" in2="effect1_backgroundBlur_309_883" result="shape"/><feColorMatrix in="SourceAlpha" values="0 0 0 0 0 0 0 0 0 0 0 0 0 0 0 0 0 0 127 0" result="hardAlpha"/><feOffset dy="2.729"/><feGaussianBlur stdDeviation="1.365"/><feComposite in2="hardAlpha" operator="arithmetic" k2="-1" k3="1"/><feColorMatrix values="0 0 0 0 1 0 0 0 0 1 0 0 0 0 1 0 0 0 0.08 0"/><feBlend in2="shape" result="effect2_innerShadow_309_883"/><feColorMatrix in="SourceAlpha" values="0 0 0 0 0 0 0 0 0 0 0 0 0 0 0 0 0 0 127 0" result="hardAlpha"/><feOffset dy="3.639"/><feGaussianBlur stdDeviation="1.82"/><feComposite in2="hardAlpha" operator="arithmetic" k2="-1" k3="1"/><feColorMatrix values="0 0 0 0 1 0 0 0 0 1 0 0 0 0 1 0 0 0 0.1 0"/><feBlend in2="effect2_innerShadow_309_883" result="effect3_innerShadow_309_883"/><feColorMatrix in="SourceAlpha" values="0 0 0 0 0 0 0 0 0 0 0 0 0 0 0 0 0 0 127 0" result="hardAlpha"/><feOffset dy=".91"/><feGaussianBlur stdDeviation=".455"/><feComposite in2="hardAlpha" operator="arithmetic" k2="-1" k3="1"/><feColorMatrix values="0 0 0 0 1 0 0 0 0 1 0 0 0 0 1 0 0 0 0.15 0"/><feBlend in2="effect3_innerShadow_309_883" result="effect4_innerShadow_309_883"/></filter><linearGradient id="paint0_linear_309_883" x1="761.993" y1="58" x2="761.993" y2="448.727" gradientUnits="userSpaceOnUse"><stop stop-color="#fff"/><stop offset="1" stop-color="#fff" stop-opacity="0"/></linearGradient><linearGradient id="paint1_linear_309_883" x1="536.294" y1="58" x2="536.294" y2="448.722" gradientUnits="userSpaceOnUse"><stop stop-color="#fff"/><stop offset="1" stop-color="#fff" stop-opacity="0"/></linearGradient><linearGradient id="paint2_linear_309_883" x1="195.8" y1="57" x2="195.8" y2="448.206" gradientUnits="userSpaceOnUse"><stop stop-color="#fff"/><stop offset="1" stop-color="#fff" stop-opacity="0"/></linearGradient></defs></svg>