<svg width="80" height="90" fill="none" xmlns="http://www.w3.org/2000/svg"><path d="M9.602 14.843c.083-.127.143-.224.21-.317a30.139 30.139 0 014.671-5.093 34.299 34.299 0 013.445-2.638 38.417 38.417 0 015.079-2.877 38.066 38.066 0 013.691-1.515 35.917 35.917 0 014.099-1.221 112.12 112.12 0 013.502-.736c.731-.132 1.479-.195 2.214-.315.944-.152 1.893-.126 2.841-.126 2.113 0 4.227-.016 6.34.008.67.021 1.338.08 2.002.178.824.101 1.647.225 2.466.362.534.089 1.068.207 1.601.33.79.182 1.58.358 2.359.576.911.254 1.821.523 2.714.836.973.343 1.938.715 2.883 1.13.993.437 1.967.917 2.936 1.416a34.506 34.506 0 015.329 3.445c.91.702 1.778 1.457 2.6 2.26.044.043.079.097.133.17a2.566 2.566 0 01-.273.174l-6.612 3.19c-.603.29-1.213.571-1.806.884-.267.133-.437.102-.652-.085a31.157 31.157 0 00-6.194-4.26 37.336 37.336 0 00-4.483-2.006 39.658 39.658 0 00-3.523-1.137c-.812-.218-1.634-.398-2.455-.583a52.172 52.172 0 00-1.692-.339 13.32 13.32 0 00-1.01-.16 315.366 315.366 0 00-3.527-.386c-.329-.034-.668-.039-.992-.044-1.225-.021-2.452-.073-3.677-.047-1.054.023-2.107.116-3.157.217-.801.077-1.602.2-2.403.33-.8.13-1.616.276-2.415.454a33.25 33.25 0 00-2.256.593c-.897.266-1.792.545-2.669.867-.918.337-1.824.71-2.718 1.108a34.29 34.29 0 00-5.004 2.749 32.383 32.383 0 00-3.243 2.43c-.073.063-.15.12-.228.175-.021.019-.048.008-.126.003z" fill="#00A5CD"/><path d="M.003 26.467c.134-.01.244-.022.347-.022 4.471 0 8.942-.008 13.414 0 .894 0 1.79.057 2.681.133.724.05 1.444.147 2.156.29a18.4 18.4 0 015.363 1.913 16.78 16.78 0 016.313 5.907c.585.935 1.08 1.922 1.48 2.95.35.888.638 1.8.865 2.727.188.761.315 1.539.44 2.314.176 1.082.203 2.178.238 3.271.017.541-.05 1.083-.058 1.624a17.9 17.9 0 01-.314 2.912 21.725 21.725 0 01-.724 2.933 19.482 19.482 0 01-1.04 2.562 18.105 18.105 0 01-1.509 2.51 16.578 16.578 0 01-2.9 3.127 17.002 17.002 0 01-3.925 2.428 18.54 18.54 0 01-2.67.972c-.788.218-1.6.355-2.401.507-.461.088-.926.153-1.394.194-.551.046-1.106.071-1.66.074-4.727.02-9.454.035-14.18.048-.56 0-.525.023-.525-.518V26.467h.003zm6.273 33.84c.16.007.295.02.43.02h6.885c.885.011 1.77-.037 2.649-.144a12.14 12.14 0 005.023-1.85 11.259 11.259 0 002.402-2.094 12.052 12.052 0 001.976-3.19c.424-1.008.743-2.057.951-3.13.188-.938.305-1.888.351-2.843a19.565 19.565 0 00-.519-5.599 13.607 13.607 0 00-.934-2.635 11.766 11.766 0 00-3.215-4.151 12.131 12.131 0 00-4.925-2.393 13.973 13.973 0 00-3.14-.344c-2.499-.013-4.996 0-7.493 0h-.256a.19.19 0 00-.19.12.187.187 0 00-.011.08v27.773c-.011.125.006.238.006.38h.01zm45.81-4.677c.062.038.121.08.178.124a16.466 16.466 0 003.956 2.556 22.685 22.685 0 003.638 1.375c.738.207 1.468.424 2.222.588a15.6 15.6 0 001.735.246 17.21 17.21 0 003.83-.02 10.176 10.176 0 002.483-.573c1.067-.419 2.02-1.006 2.614-2.039.266-.46.441-.968.515-1.494a5.247 5.247 0 00-.113-2.117 3.87 3.87 0 00-1.153-1.838c-.8-.745-1.746-1.243-2.741-1.666a26.977 26.977 0 00-3.173-1.074c-1.393-.398-2.786-.797-4.185-1.164a43.738 43.738 0 01-4.615-1.498c-1.48-.577-2.847-1.341-4.013-2.436a7.643 7.643 0 01-2.12-3.36 10.062 10.062 0 01-.4-3.722c.039-.67.119-1.335.24-1.994.132-.6.31-1.189.534-1.761.34-.872.799-1.693 1.364-2.44a10.953 10.953 0 012.555-2.477c.99-.702 2.084-1.25 3.241-1.621.68-.217 1.362-.432 2.053-.601a13.63 13.63 0 011.67-.282 19.553 19.553 0 012.617-.165 30.16 30.16 0 013.092.216c.84.105 1.657.296 2.48.473.444.11.881.246 1.31.405a25.852 25.852 0 013.89 1.691c.845.451 1.66.955 2.441 1.51.06.043.114.093.167.133-.116.367-2.64 4.847-2.833 5.023a.35.35 0 01-.104-.053c-.99-.967-2.182-1.62-3.417-2.208a17.513 17.513 0 00-3.093-1.1 14.538 14.538 0 00-2.448-.454 16.585 16.585 0 00-1.819-.072c-.714.013-1.427.064-2.135.153-1.404.185-2.728.59-3.801 1.578a4.549 4.549 0 00-1.419 2.576 6.146 6.146 0 00-.088 1.555c.076 1.119.5 2.07 1.373 2.808a8.455 8.455 0 002.552 1.425c1.379.515 2.803.866 4.23 1.234 1.494.386 2.99.768 4.475 1.188 1.264.345 2.5.78 3.701 1.301 1.212.54 2.36 1.186 3.362 2.063a8.595 8.595 0 012.436 3.456c.372.983.526 2.007.607 3.049.05.828.019 1.658-.09 2.48a9.75 9.75 0 01-1.678 4.49 9.93 9.93 0 01-2.988 2.791 13.598 13.598 0 01-3.47 1.506 20.727 20.727 0 01-3.988.707 35.316 35.316 0 01-3.677.052c-.994-.021-1.972-.187-2.959-.284a10.29 10.29 0 01-1.442-.273c-.935-.228-1.869-.452-2.778-.733a23.918 23.918 0 01-3.264-1.282 25.66 25.66 0 01-4.175-2.517c-.237-.174-.247-.188-.133-.407.849-1.595 1.7-3.186 2.552-4.774.06-.088.127-.173.199-.253zm-7.383-29.187v39.071c-.009.298-.03.324-.336.326H38.83c-.311 0-.352-.048-.362-.349V27.04c0-.646-.058-.595.609-.595h5.627v-.003zM29.319 85.388c.468.741.934 1.475 1.396 2.213.462.737.951 1.448 1.408 2.26a2.455 2.455 0 01-.325.054c-.33 0-.667-.01-.992.006a.526.526 0 01-.524-.28c-.432-.695-.878-1.383-1.318-2.072-.377-.592-.756-1.182-1.125-1.777a.4.4 0 00-.386-.222h-2.657a1.992 1.992 0 00-.247.033c0 .133-.02.256-.02.38v3.508c0 .378-.041.418-.422.422h-.8c-.234-.008-.295-.075-.309-.31V78.409c0-.52 0-.52.534-.52 1.43 0 2.86-.013 4.29 0 .775.01 1.522.15 2.184.603.488.327.898.757 1.201 1.258.451.732.64 1.594.534 2.446-.162 1.292-.762 2.304-1.963 2.903-.123.063-.252.11-.377.171-.02.018-.033.054-.082.118zm-4.769-1.18c.07.017.14.029.211.035 1.121 0 2.24.015 3.36 0 .908-.016 1.52-.497 1.869-1.31.26-.566.317-1.204.162-1.808-.213-.798-.653-1.437-1.469-1.728a2.994 2.994 0 00-.944-.133c-.935-.016-1.857 0-2.786 0h-.224a.188.188 0 00-.191.117.186.186 0 00-.013.079v4.43c.004.102.017.206.025.317zM39.818 90c-1.413-.016-2.585-.564-3.618-1.481a5.734 5.734 0 01-1.584-2.358c-.366-1.003-.534-2.043-.369-3.13a6.324 6.324 0 011.563-3.323c.857-.954 1.929-1.614 3.224-1.808 1.043-.155 2.077-.069 3.025.422a6.109 6.109 0 012.143 1.777 6.314 6.314 0 011.279 4.394 5.785 5.785 0 01-.5 1.9 6.054 6.054 0 01-.96 1.57c-.28.332-.6.632-.948.895-.633.452-1.3.857-2.091.983-.387.062-.776.107-1.164.159zm-4.072-6.047a4.938 4.938 0 00.816 2.78c.695 1.004 1.572 1.709 2.849 1.826a4.098 4.098 0 001.665-.176c1.053-.344 1.774-1.072 2.281-2.019a4.97 4.97 0 00.574-2.068c.079-1.23-.192-2.359-.917-3.368-.647-.902-1.5-1.478-2.62-1.65-1.534-.235-2.72.366-3.632 1.53-.706.888-1.016 1.945-1.016 3.145zM19.43 80.47l-1.08.759c-.083-.11-.152-.186-.207-.273a3.61 3.61 0 00-2.43-1.657 3.83 3.83 0 00-2.43.277 3.744 3.744 0 00-1.429 1.197 5.24 5.24 0 00-.534 5.283c.28.622.695 1.174 1.214 1.619.308.242.644.447 1 .611a3.451 3.451 0 001.62.306 3.823 3.823 0 001.88-.552c.516-.32.98-.716 1.377-1.175a.39.39 0 00.12-.215c.01-.518 0-1.037 0-1.595-.857-.012-1.683 0-2.527-.01a3.22 3.22 0 01-.02-.976c0-.05.09-.108.152-.133a.52.52 0 01.19-.015h3.231c.212.02.257.066.266.273v5.483a.234.234 0 01-.069.174.238.238 0 01-.175.069c-.277.01-.555 0-.833 0-.168 0-.21-.117-.21-.26v-.956c0-.1-.015-.2-.028-.36-.234.198-.42.35-.601.507a4.488 4.488 0 01-2.3 1.072 4.69 4.69 0 01-2.12-.152 5.677 5.677 0 01-2.536-1.661 6.523 6.523 0 01-1.483-2.854 6.43 6.43 0 01-.133-1.962c.055-.862.343-1.656.727-2.422a5.508 5.508 0 011.652-1.957 5.155 5.155 0 013.532-1.064c.65.025 1.29.16 1.895.399a4.799 4.799 0 012.18 1.898c.032.055.059.112.08.171.013.05.022.1.029.15zm28.904-2.578h1.27c.134 0 .191.082.2.201.01.12 0 .213 0 .32v5.353c-.009.68.062 1.36.212 2.024.147.7.486 1.347.978 1.868.424.438.972.738 1.57.86a4.34 4.34 0 001.777-.044 2.791 2.791 0 001.57-.917c.719-.826 1.016-1.819 1.04-2.877.043-2.07.028-4.143.036-6.213 0-.61-.024-.58.572-.579h.703c.233 0 .259.047.267.266v5.514c.01.84-.079 1.678-.267 2.497-.258 1.051-.753 1.994-1.58 2.71a4.395 4.395 0 01-1.922.959 6.61 6.61 0 01-2.067.095 4.67 4.67 0 01-1.987-.64c-.839-.492-1.398-1.207-1.794-2.06a6.175 6.175 0 01-.483-1.643 14.002 14.002 0 01-.143-2.26v-5.004c.02-.128.035-.26.048-.43zm15.305 7.678c-.01.176-.02.3-.02.425v3.667a.225.225 0 01-.236.246c-.353.008-.705.01-1.057 0a.235.235 0 01-.223-.158.233.233 0 01-.01-.096V78.397c0-.507 0-.507.517-.507 1.201 0 2.39.008 3.586 0a8.726 8.726 0 011.592.115 3.194 3.194 0 011.43.673 3.985 3.985 0 011.453 2.407c.14.726.062 1.476-.223 2.159a3.634 3.634 0 01-1.613 1.91 3.192 3.192 0 01-1.59.42h-3.603l-.003-.003zm0-1.344c.15.008.255.017.359.017h2.145c.372 0 .747 0 1.118-.022a1.811 1.811 0 001.437-.84 2.784 2.784 0 00.364-2.467c-.293-.92-.9-1.533-1.921-1.62-.371-.03-.745-.031-1.117-.034h-2.08c-.284 0-.31.035-.321.311v4.303c-.004.105.005.208.012.352h.004z" fill="#fff"/></svg>