<svg width="720" height="550" fill="none" xmlns="http://www.w3.org/2000/svg"><g clip-path="url(#clip0_872_253)"><path fill="#000" d="M0 0h720v550H0z"/><path d="M388.845 495.753a21.788 21.788 0 01-11.149-3.039l-45.953-27.244.804-1.354 45.952 27.196a20.355 20.355 0 0019.984.394l38.079-20.519.756 1.385-38.079 20.567a21.836 21.836 0 01-10.394 2.614zM217.554 386.227c-.189.472-.377.976-.566 1.48L4.863 264.007A9.726 9.726 0 010 255.589a9.717 9.717 0 014.863-8.417l44.787-26.047 1.575.898-45.56 26.519a8.146 8.146 0 00-3.024 11.189 8.136 8.136 0 003.025 2.984l211.888 123.512z" fill="#00E0FF"/><path d="M384.845 226.07a21.937 21.937 0 01-11.024-2.945l-86.22-49.716 1.701-.882 85.307 49.244a20.48 20.48 0 0010.314 2.724 20.459 20.459 0 0010.284-2.835l78.582-46.377.788 1.354-78.567 46.378a22.056 22.056 0 01-11.165 3.055z" fill="#fff"/><path d="M755.101 330.463L474 166.684s1.575-41.511 19.685-50.393c18.11-8.882 37.48 55.244 61.795 45.086 24.315-10.157 24.803-120.11 57.086-103.149 32.284 16.96 46.157 92.078 72.346 106.976C716.408 183.125 735.652 17 735.652 17l19.449 11.024v302.439z" fill="#000" stroke="#fff" stroke-width=".5" stroke-miterlimit="10"/><path d="M715.101 340.872L434 177.173s1.575-41.512 19.701-50.394c18.126-8.882 37.464 55.244 61.779 45.086 24.315-10.157 24.803-120.11 57.086-103.164 32.284 16.945 46.157 92.094 72.441 106.991 31.496 17.906 50.724-148.204 50.724-148.204l19.449 11.024v302.36h-.079z" fill="#000" stroke="#fff" stroke-width=".5" stroke-miterlimit="10"/><path d="M671.71 356.794L390.609 193.109s1.575-41.527 19.701-50.393 37.464 55.244 61.779 45.086c24.315-10.157 24.803-120.11 57.086-103.133 32.284 16.976 46.158 92.094 72.362 106.976 31.512 17.921 50.772-148.204 50.772-148.204l19.448 11.102v302.251h-.047z" fill="#00E0FF"/><path d="M838.528 571.769L404.971 319.298s2.457-64.047 30.378-77.685c27.921-13.638 57.779 85.212 95.291 69.543 37.512-15.669 38.204-185.196 88.062-159.117 49.858 26.078 71.181 142.046 111.575 165.007 48.614 27.637 78.251-228.582 78.251-228.582l29.921 17.118v466.14l.079.047z" fill="#000" stroke="#fff" stroke-width=".5" stroke-miterlimit="10"/><path d="M848.557 628.163L415 375.77s2.457-64.031 30.378-77.684c27.921-13.654 57.779 85.212 95.291 69.543 37.511-15.669 38.251-185.259 88.062-159.055 49.811 26.205 71.181 142.047 111.59 165.007C788.919 401.219 818.573 145 818.573 145l29.921 17.118v466.139l.063-.094z" fill="#000" stroke="#fff" stroke-width="2" stroke-miterlimit="10"/><path d="M192.325 93.503l-1.842 1.811a10.624 10.624 0 00-1.953-1.574l-.567-.315c.132-.38.196-.78.189-1.181-.095-.63-4.299-3.323-5.591-4-1.291-.678-7.574-.93-7.574-.93l-6.914 4.93 1.055.614c-.409.173-.787.362-1.149.55-.638.347-1.249.742-1.827 1.182l-2.913-.425v5.653a6.902 6.902 0 003.779 5.433c5.418 3.355 14.63 3.512 20.473.331 3.149-1.575 4.724-3.858 4.724-6.079l.11-6zm-17.606 7.559l-3.732-3.763a6.14 6.14 0 011.496-1.071 12.298 12.298 0 0111.102.173 4.425 4.425 0 011.811 1.921l-10.677 2.74z" fill="#FFF6FF"/><path d="M187.586 100.763c-5.921 3.15-15.134 3.024-20.473-.33-5.338-3.355-4.992-8.662.945-11.843 5.937-3.181 15.134-3.023 20.551.33 5.418 3.355 4.914 8.694-1.023 11.843zm-15.103-9.449c-3.149 1.717-3.433 4.583-.503 6.394a12.343 12.343 0 0011.102.19c3.149-1.717 3.433-4.6.504-6.41a12.303 12.303 0 00-11.103-.174z" fill="#00E0FF"/><path d="M302.923 156.196l-2.284.693a14.542 14.542 0 00-2.897-2.189c-6.3-3.653-15.748-4.047-21.166-.882l-22.126 12.85-6.708 2.032v5.323c.094 2.362 1.827 4.85 5.165 6.787 6.299 3.669 15.748 4.063 21.165.898l25.197-14.63a6.425 6.425 0 003.654-5.26v-5.622z" fill="#FFF6FF"/><path d="M273.823 175.952l-.001.001c-2.601 1.512-6.222 2.197-9.992 2.042-3.764-.154-7.618-1.145-10.67-2.924l-.001-.001c-3.076-1.784-4.667-3.969-4.918-5.993-.246-1.987.781-3.993 3.345-5.505h.001l25.194-14.629h.001c2.601-1.512 6.222-2.198 9.991-2.043 3.765.155 7.619 1.146 10.671 2.925h0c3.086 1.793 4.688 3.979 4.942 6 .25 1.983-.779 3.985-3.367 5.498h-.001l-25.195 14.629z" fill="#000" stroke="#fff"/><path d="M294.956 150.826c4.992 2.882 4.992 7.559 0 10.441a19.992 19.992 0 01-18.079 0c-4.992-2.882-4.992-7.559 0-10.441a19.979 19.979 0 0118.079 0z" fill="#00E0FF"/><path d="M265.067 142.716v-7.496l-13.953-3.606-30.929-17.874c-5.212-3.008-13.086-3.339-17.606-.724l-31.7 18.299-14.788 3.496v7.417a2.652 2.652 0 000 .488v.126c.142 1.906 1.575 3.874 4.284 5.433l40.598 23.433c5.213 3.008 13.086 3.339 17.606.725l43.465-25.087a5.14 5.14 0 003.023-4.63z" fill="#FFF6FF"/><path d="M218.328 164.094h0c-2.153 1.245-5.148 1.809-8.272 1.679-3.119-.129-6.309-.947-8.834-2.404l-40.598-23.448h0c-2.535-1.463-3.832-3.239-4.033-4.861-.197-1.582.632-3.199 2.772-4.43l.001-.001 43.464-25.101c2.153-1.238 5.149-1.798 8.273-1.667 3.119.132 6.309.95 8.834 2.406 0 0 0 0 0 0l40.598 23.433.001.001c2.534 1.454 3.831 3.231 4.032 4.856.197 1.587-.633 3.212-2.774 4.451l-43.464 25.086z" fill="#000" stroke="#fff"/><path d="M231.363 147c-11.494 6.667-30.226 6.667-41.733 0-11.507-6.667-11.507-17.333 0-24 11.507-6.667 30.239-6.667 41.746 0 11.507 6.667 11.494 17.373-.013 24zm-37.157-21.333c-8.978 5.173-8.978 13.586 0 18.746 8.978 5.16 23.603 5.174 32.594 0 8.992-5.173 8.978-13.573 0-18.746-8.978-5.174-23.656-5.214-32.594-.054v.054z" fill="#A9FFCD"/><path d="M219.25 138L207 135.822l.434-11.822 6.17.08-.332 8.992 7.728 1.382-1.75 3.546z" fill="#A9FFCD"/><path d="M240.042 71.567l-18.016-10.803-18.031 11.055 18.031 10.819 18.016-11.071z" fill="url(#paint0_linear_872_253)"/><path d="M222.026 90.48v-7.843l-18.031-10.819v7.859l18.031 10.803z" fill="#AEF5FF"/><path d="M240.042 71.566v7.859L222.026 90.48v-7.843l18.016-11.07z" fill="#00E0FF"/><path d="M267.08 73.724l-18.015-10.819-18.032 11.071 18.032 10.803 18.015-11.055z" fill="url(#paint1_linear_872_253)"/><path d="M249.065 106.102V84.779l-18.032-10.803V95.3l18.032 10.803z" fill="#AEF5FF"/><path d="M267.081 73.724v21.307l-18.015 11.071V84.779l18.015-11.055z" fill="#00E0FF"/><path d="M293.365 64.89l-18.032-10.804-18.015 11.055 18.015 10.804 18.032-11.055z" fill="url(#paint2_linear_872_253)"/><path d="M275.333 121.834v-45.89l-18.015-10.803v45.89l18.015 10.803z" fill="#AEF5FF"/><path d="M293.365 64.89v45.873l-18.031 11.071v-45.89l18.031-11.055z" fill="#00E0FF"/><path d="M320.404 39.456l-18.032-10.803-18.031 11.071 18.031 10.803 18.032-11.07z" fill="url(#paint3_linear_872_253)"/><path d="M302.372 137.661V50.527l-18.031-10.803v87.118l18.031 10.819z" fill="#AEF5FF"/><path d="M320.405 39.456v87.134l-18.032 11.071V50.527l18.032-11.07z" fill="#00E0FF"/><path d="M347.443 86.023l-18.031-10.819-18.031 11.07 18.031 10.804 18.031-11.055z" fill="url(#paint4_linear_872_253)"/><path d="M329.412 153.235V97.078l-18.031-10.803v56.157l18.031 10.803z" fill="#AEF5FF"/><path d="M347.444 86.023v56.157l-18.032 11.055V97.078l18.032-11.055z" fill="#00E0FF"/><path d="M127.618 408.84v-.015" stroke="#fff" stroke-width=".28" stroke-miterlimit="10"/><path d="M145.651 204.857l-58.693 33.906a6.54 6.54 0 01-5.921-.252l-13.654-7.874c-1.748-1.008-1.937-2.552-.425-3.418l58.74-33.905a6.542 6.542 0 015.906.236l13.653 7.874c1.716 1.024 1.905 2.551.394 3.433z" fill="#000" stroke="#00E0FF" stroke-width=".5" stroke-miterlimit="10"/><path opacity=".8" d="M170.295 219.078l-58.74 33.905a6.528 6.528 0 01-5.905-.236l-13.654-7.874c-1.748-1.008-1.953-2.535-.425-3.417l58.724-33.906a6.506 6.506 0 015.953.3l13.669 7.874c1.701.944 1.89 2.488.378 3.354z" fill="#000" stroke="#00E0FF" stroke-width=".5" stroke-miterlimit="10"/><path d="M121.083 190.668l-58.74 33.906a6.506 6.506 0 01-5.906-.252l-13.653-7.874c-1.764-1.008-1.953-2.551-.425-3.418l58.771-33.905a6.542 6.542 0 015.905.236l13.67 7.874c1.7 1.024 1.889 2.551.378 3.433z" stroke="#00E0FF" stroke-miterlimit="10"/><path opacity=".6" d="M194.846 233.266l-58.724 33.906a6.593 6.593 0 01-5.905-.252l-13.67-7.874c-1.748-1.008-1.937-2.536-.425-3.402l58.74-33.905a6.528 6.528 0 015.906.236l13.653 7.874c1.764 1.008 1.953 2.535.425 3.417z" fill="#000" stroke="#A9FFCD" stroke-width=".5" stroke-miterlimit="10"/><path opacity=".4" d="M219.24 247.345L160.5 281.25a6.528 6.528 0 01-5.906-.236l-13.653-7.874c-1.764-1.008-1.953-2.535-.425-3.417l58.724-33.905a6.492 6.492 0 015.905.252l13.67 7.874c1.763.992 2 2.519.425 3.401z" fill="#000" stroke="#A9FFCD" stroke-width=".5" stroke-miterlimit="10"/><path opacity=".4" d="M243.524 261.392l-58.74 33.906a6.597 6.597 0 01-5.906-.252l-13.653-7.874c-1.748-1.024-1.953-2.551-.425-3.418l58.724-33.905a6.538 6.538 0 015.905.236l13.669 7.874c1.748.992 1.937 2.52.426 3.433z" fill="#000" stroke="#00E0FF" stroke-width=".5" stroke-miterlimit="10"/><path opacity=".4" d="M207.68 311.329a7.773 7.773 0 01-3.732-.945l-13.653-7.874a3.147 3.147 0 01-1.843-2.614 2.51 2.51 0 011.417-2.157l58.725-33.906a7.338 7.338 0 016.708.236l13.654 7.874a3.16 3.16 0 011.842 2.615 2.5 2.5 0 01-1.417 2.157l-58.724 33.905a5.974 5.974 0 01-2.977.709z" fill="#000" stroke="#A9FFCD" stroke-width=".5" stroke-miterlimit="10"/><path d="M531.325 456.325l-58.693 33.905a6.528 6.528 0 01-5.921-.252l-13.654-7.874c-1.748-1.007-1.937-2.551-.425-3.417l58.74-33.905a6.528 6.528 0 015.905.236l13.654 7.874c1.716 1.024 1.905 2.551.394 3.433z" fill="#000" stroke="#00E0FF" stroke-width=".5" stroke-miterlimit="10"/><path opacity=".8" d="M555.969 470.546l-58.74 33.905a6.542 6.542 0 01-5.905-.236l-13.654-7.874c-1.748-1.008-1.953-2.536-.425-3.418l58.724-33.905a6.506 6.506 0 015.953.299l13.669 7.874c1.701.945 1.89 2.488.378 3.355z" fill="#000" stroke="#00E0FF" stroke-width=".5" stroke-miterlimit="10"/><path d="M506.756 442.136l-58.739 33.905a6.497 6.497 0 01-5.906-.252l-13.653-7.874c-1.764-1.007-1.953-2.551-.426-3.417l58.772-33.905a6.526 6.526 0 015.905.236l13.669 7.874c1.701 1.024 1.89 2.551.378 3.433z" fill="#000" stroke="#00E0FF" stroke-miterlimit="10"/><path opacity=".6" d="M580.52 484.734l-58.724 33.905a6.594 6.594 0 01-5.906-.252l-13.669-7.874c-1.748-1.007-1.937-2.535-.425-3.401l58.74-33.905a6.528 6.528 0 015.905.236l13.654 7.874c1.764 1.008 1.953 2.535.425 3.417z" fill="#000" stroke="#A9FFCD" stroke-width=".5" stroke-miterlimit="10"/><path opacity=".4" d="M604.914 498.813l-58.74 33.905a6.528 6.528 0 01-5.906-.236l-13.653-7.874c-1.764-1.008-1.953-2.535-.425-3.417l58.724-33.906a6.504 6.504 0 015.905.252l13.669 7.874c1.764.992 2 2.52.426 3.402z" fill="#000" stroke="#A9FFCD" stroke-width=".5" stroke-miterlimit="10"/><path opacity=".4" d="M629.197 512.86l-58.739 33.906a6.6 6.6 0 01-5.906-.252l-13.653-7.874c-1.748-1.024-1.953-2.552-.426-3.418l58.724-33.905a6.542 6.542 0 015.906.236l13.669 7.874c1.748.992 1.937 2.52.425 3.433z" fill="#000" stroke="#00E0FF" stroke-width=".5" stroke-miterlimit="10"/><path opacity=".4" d="M593.354 562.797a7.773 7.773 0 01-3.732-.945l-13.654-7.874a3.153 3.153 0 01-1.842-2.614 2.5 2.5 0 011.417-2.158l58.724-33.905a7.342 7.342 0 016.709.236l13.653 7.874a3.149 3.149 0 011.843 2.614 2.51 2.51 0 01-1.417 2.158l-58.724 33.905c-.914.49-1.94.735-2.977.709z" fill="#000" stroke="#A9FFCD" stroke-width=".5" stroke-miterlimit="10"/><path d="M444.029 415.108l.22-116.33a11.166 11.166 0 00-4.724-8.866L306.959 213.55a3.015 3.015 0 00-2.914-.283l-2.818 1.575 3.464 4.929v112.818a11.099 11.099 0 004.725 8.866l129.337 79.26 1.26-.552 2.473-1.354a4.194 4.194 0 001.543-3.701z" fill="url(#paint5_linear_872_253)"/><path d="M437.164 420.604l-132.566-76.377a11.11 11.11 0 01-4.646-8.866l-.078-116.913c0-3.418 2.063-4.992 4.63-3.512l132.566 76.378a11.13 11.13 0 014.724 8.881l.079 113.464c-.063 3.402-2.157 8.363-4.709 6.945z" fill="#000" stroke="#fff" stroke-width=".5" stroke-miterlimit="10"/><path d="M433.92 408.51l-126.204-72.708a4.919 4.919 0 01-2.063-3.921l-.079-105.275c0-1.575.914-2.221 2.047-1.575l126.22 72.708a4.901 4.901 0 012.048 3.921l.078 105.291c.016 1.512-.976 2.221-2.047 1.559z" fill="#00E0FF"/><path d="M370.985 258.416l-.519-.299a2.852 2.852 0 01-1.197-2.284c0-.881.535-1.291 1.197-.913l.519.315a2.852 2.852 0 011.197 2.283c0 .867-.535 1.276-1.197.898zm65.155 161.795l-7.496-.63-126.802-73.039a11.175 11.175 0 00-10.016.425l-92.44 53.543-4.898-.409v1.748a2.916 2.916 0 001.716 2.645l132.567 76.362a11.187 11.187 0 0010-.425l94.913-51.716a4.07 4.07 0 002.409-3.26l.047-5.244z" fill="#fff"/><path d="M194.998 399.801c.101-.828.772-1.79 2.181-2.607l94.891-54.925.003-.001a10.623 10.623 0 019.54-.415l132.545 76.35c1.165.672 1.568 1.518 1.472 2.307-.102.828-.773 1.79-2.182 2.607l-94.908 54.91-.002.001a10.524 10.524 0 01-9.523.414L196.47 402.108c-1.165-.672-1.569-1.518-1.472-2.307z" fill="#000" stroke="#fff"/><path d="M366.896 453.171l-126.22-72.708c-1.134-.646-.992-1.795.315-2.551l53.039-30.756a4.898 4.898 0 014.425-.189l126.22 72.693c1.134.661.992 1.795-.315 2.551l-53.039 30.771a4.939 4.939 0 01-4.425.189z" fill="#000"/><path d="M285.457 447.247l-34.936-20.112a.402.402 0 01-.145-.131c-.013-.021-.013-.032-.011-.043.004-.031.05-.171.327-.335l.002-.001 28.337-16.403a2.158 2.158 0 011.89-.084l34.858 20.19.005.003a.403.403 0 01.15.126c.011.019.012.03.011.041-.004.032-.051.174-.325.336l-.002.001-28.326 16.398a2.16 2.16 0 01-1.835.014z" fill="#000" stroke="#fff"/><path d="M240.676 380.463l.646.378 52.708-30.583a4.95 4.95 0 014.425-.189L423.966 422.4l.331-.189c1.307-.756 1.449-1.89.315-2.551l-126.157-72.693a4.897 4.897 0 00-4.425.189l-53.039 30.772c-1.276.74-1.449 1.889-.315 2.535z" fill="#000"/><path d="M294.077 359.329l-3.543-2.032c-.882-.519-.772-1.417.252-2.015l1.433-.819a3.888 3.888 0 013.48-.158l3.544 2.048c.897.504.787 1.401-.252 2l-1.433.834a3.85 3.85 0 01-3.481.142zm8.835 5.087l-3.543-2.032c-.898-.52-.788-1.417.252-2.016l1.433-.834a3.89 3.89 0 013.48-.142l3.543 2.047c.882.504.772 1.402-.252 2l-1.433.835a3.847 3.847 0 01-3.48.142zm8.819 5.086l-3.544-2.047c-.882-.504-.771-1.402.252-2l1.433-.835a3.837 3.837 0 013.481-.141l3.543 2.031c.898.52.787 1.418-.252 2.016l-1.433.835a3.888 3.888 0 01-3.48.141zm8.834 5.087l-3.543-2.047c-.898-.504-.788-1.402.252-2l1.433-.835a3.815 3.815 0 013.464-.142l3.544 2.032c.897.52.787 1.417-.237 2.016l-1.448.834a3.912 3.912 0 01-3.465.142zm8.816 5.086l-3.544-2.047c-.881-.52-.771-1.417.252-2l1.433-.835a3.9 3.9 0 013.481-.157l3.543 2.047c.898.52.772 1.418-.252 2l-1.433.835a3.884 3.884 0 01-3.48.157zm8.834 5.087l-3.543-2.11c-.898-.52-.788-1.418.236-2.016l1.449-.819a3.864 3.864 0 013.464-.157l3.544 2.047c.897.504.787 1.417-.236 2l-1.449.835a3.867 3.867 0 01-3.465.22zm8.819 5.071l-3.543-2.031c-.882-.52-.772-1.418.252-2.016l1.433-.835a3.941 3.941 0 013.48-.142l3.543 2.048c.882.504.772 1.401-.252 2l-1.433.834a3.834 3.834 0 01-3.48.142z" fill="#00E0FF"/><path d="M355.868 394.919l-3.543-2.031c-.898-.52-.787-1.417.236-2.016l1.449-.835a3.86 3.86 0 013.465-.141l3.543 2.047c.898.504.787 1.402-.236 2l-1.449.835a3.809 3.809 0 01-3.465.141zm8.82 5.055l-3.544-2.047c-.881-.504-.771-1.401.252-2l1.433-.834a3.838 3.838 0 013.481-.142l3.543 2.031c.882.52.772 1.418-.252 2.016l-1.433.835a3.876 3.876 0 01-3.48.141zm8.88 5.118l-3.543-2.047c-.898-.504-.788-1.401.236-2l1.449-.834a3.815 3.815 0 013.464-.142l3.544 2.031c.897.52.787 1.418-.236 2.016l-1.449.819a3.851 3.851 0 01-3.465.157zm9.041 5.229l-3.544-2.032c-.882-.519-.771-1.417.252-2.015l1.433-.819a3.902 3.902 0 011.722-.491 3.899 3.899 0 011.759.333l3.543 2.047c.882.504.772 1.402-.252 2l-1.433.835a3.847 3.847 0 01-3.48.142zm8.834 5.087l-3.543-2.032c-.898-.52-.788-1.417.236-2.016l1.449-.834a3.855 3.855 0 013.464-.142l3.544 2.047c.897.504.787 1.402-.237 2l-1.448.835a3.815 3.815 0 01-3.465.142zm8.897 5.039l-3.543-2.048c-.882-.504-.772-1.401.252-2l1.433-.834a3.847 3.847 0 013.48-.142l3.543 2.032c.882.519.772 1.417-.252 2.015l-1.433.835a3.9 3.9 0 01-3.48.142zm8.756 5.134l-3.543-2.047c-.898-.504-.787-1.402.236-2l1.449-.835a3.815 3.815 0 013.465-.142l3.543 2.032c.898.519.787 1.417-.252 2.015l-1.433.819a3.851 3.851 0 01-3.465.158z" fill="#A9FFCD"/><path d="M283.937 365.329l-3.717-2.141c-.898-.52-.787-1.418.252-2.016l4.284-2.488a3.887 3.887 0 013.48-.142l3.716 2.142c.898.519.788 1.417-.236 2.015l-4.299 2.473a3.884 3.884 0 01-3.48.157zm8.834 5.071l-3.732-2.158c-.882-.504-.772-1.401.252-2l4.299-2.488a3.815 3.815 0 013.465-.142l3.732 2.142c.897.52.771 1.417-.252 2l-4.284 2.488a3.884 3.884 0 01-3.48.158zm8.913 5.134l-3.701-2.158c-.898-.504-.787-1.401.236-2l4.299-2.488a3.851 3.851 0 013.481-.142l3.716 2.142c.898.52.788 1.417-.252 2l-4.283 2.488a3.887 3.887 0 01-3.496.158zm8.898 5.07l-3.733-2.141c-.881-.504-.771-1.402.252-2l4.284-2.489a3.838 3.838 0 013.48-.141l3.732 2.141c.882.504.772 1.418-.252 2l-4.299 2.489a3.805 3.805 0 01-3.464.141zm8.755 5.087l-3.716-2.142c-.898-.504-.788-1.417.236-2l4.299-2.488a3.884 3.884 0 013.48-.157l3.717 2.157c.897.504.787 1.402-.252 2l-4.284 2.488a3.847 3.847 0 01-3.48.142zm8.909 5.134l-3.717-2.142c-.897-.504-.787-1.401.237-2l4.299-2.488a3.847 3.847 0 013.48-.142l3.717 2.142c.897.504.787 1.402-.252 2l-4.284 2.488a3.834 3.834 0 01-3.48.142zm8.834 5.086l-3.732-2.141c-.882-.52-.771-1.418.252-2l4.299-2.488a3.855 3.855 0 013.465-.158l3.732 2.158c.882.503.772 1.401-.252 2l-4.346 2.488a3.806 3.806 0 01-3.418.141zm8.914 5.135l-3.732-2.142c-.882-.504-.772-1.402.252-2l4.299-2.488a3.815 3.815 0 013.465-.142l3.732 2.142c.882.504.772 1.401-.252 2l-4.299 2.488a3.815 3.815 0 01-3.465.142z" fill="#00E0FF"/><path d="M354.813 406.132l-3.716-2.142c-.898-.52-.788-1.417.252-2l4.283-2.488a3.884 3.884 0 013.48-.157l3.717 2.157c.897.504.787 1.402-.236 2l-4.3 2.488a3.847 3.847 0 01-3.48.142zm8.835 5.087l-3.733-2.142c-.882-.52-.771-1.417.252-2.016l4.299-2.472a3.855 3.855 0 013.465-.158l3.732 2.142c.882.52.772 1.417-.252 2.016l-4.299 2.488a3.866 3.866 0 01-3.464.142zm8.913 5.133l-3.717-2.204c-.882-.52-.771-1.418.252-2.016l4.299-2.473a3.863 3.863 0 013.465-.157l3.732 2.142c.898.519.772 1.417-.252 2.015l-4.283 2.489a3.898 3.898 0 01-3.496.204zm8.882 5.087l-3.717-2.142c-.897-.52-.787-1.417.252-2.016l4.284-2.488a3.886 3.886 0 013.48-.142l3.717 2.142c.897.52.787 1.417-.237 2.016l-4.299 2.472a3.884 3.884 0 01-3.48.158zm8.772 5.087l-3.733-2.158c-.881-.504-.771-1.401.252-2l4.3-2.488a3.815 3.815 0 013.464-.142l3.732 2.142c.882.52.772 1.417-.252 2l-4.299 2.488a3.85 3.85 0 01-3.464.158zm8.912 5.133l-3.716-2.141c-.898-.52-.788-1.418.236-2.016l4.299-2.488a3.873 3.873 0 011.723-.482 3.875 3.875 0 011.757.34l3.717 2.142c.897.519.787 1.417-.252 2.015l-4.284 2.441a3.879 3.879 0 01-3.48.189z" fill="#A9FFCD"/><path d="M273.763 371.345l-3.732-2.142c-.882-.519-.772-1.417.252-2.015l4.299-2.473a3.864 3.864 0 013.464-.157l3.733 2.141c.881.52.771 1.418-.252 2.016l-4.3 2.488a3.855 3.855 0 01-3.464.142zm8.819 5.086l-3.716-2.141c-.898-.52-.788-1.418.236-2.016l4.299-2.488a3.873 3.873 0 011.723-.482 3.875 3.875 0 011.757.34l3.717 2.142c.897.519.787 1.417-.252 2.015l-4.284 2.552a3.897 3.897 0 01-3.48.078zm8.914 5.134l-3.717-2.063c-.898-.52-.787-1.417.252-2.016l4.284-2.488a3.9 3.9 0 013.48-.142l3.716 2.142c.898.52.788 1.417-.236 2.016l-4.299 2.472a3.89 3.89 0 01-3.48.079zm8.834 5.087l-3.732-2.158c-.882-.504-.772-1.401.252-2l4.299-2.488a3.815 3.815 0 013.464-.142l3.733 2.142c.882.52.771 1.417-.252 2l-4.299 2.488a3.855 3.855 0 01-3.465.158zm8.818 5.071l-3.716-2.142c-.898-.504-.788-1.402.236-2l4.299-2.488a3.834 3.834 0 013.48-.142l3.717 2.142c.897.504.787 1.401-.252 2l-4.284 2.488a3.847 3.847 0 01-3.48.142zm8.914 5.102l-3.716-2.158c-.898-.504-.788-1.401.252-2l4.283-2.488a3.847 3.847 0 013.48-.142l3.717 2.142c.897.52.787 1.417-.236 2l-4.237 2.535a3.882 3.882 0 01-3.543.111zm8.83 5.118l-3.717-2.142c-.882-.504-.771-1.401.252-2l4.299-2.488a3.815 3.815 0 013.465-.142l3.732 2.142c.882.504.772 1.402-.252 2l-4.299 2.488a3.81 3.81 0 01-3.48.142zm8.882 5.134l-3.717-2.142c-.897-.504-.787-1.401.237-2l4.299-2.488a3.847 3.847 0 013.48-.142l3.717 2.142c.897.504.787 1.417-.252 2l-4.284 2.488a3.847 3.847 0 01-3.48.142zm8.851 5.086l-3.717-2.141c-.898-.52-.787-1.418.252-2l4.284-2.488a3.84 3.84 0 013.48-.142l3.716 2.141c.898.504.788 1.402-.236 2.001l-4.299 2.488a3.847 3.847 0 01-3.48.141zm8.834 5.134l-3.732-2.142c-.882-.519-.772-1.417.252-2l4.299-2.488a3.864 3.864 0 013.464-.157l3.733 2.141c.897.52.771 1.418-.252 2.016l-4.284 2.488a3.887 3.887 0 01-3.48.142z" fill="#00E0FF"/><path d="M362.372 422.384l-3.717-2.142c-.897-.52-.787-1.417.237-2l4.299-2.488a3.884 3.884 0 013.48-.158l3.717 2.158c.897.504.787 1.401-.252 2l-4.284 2.488a3.847 3.847 0 01-3.48.142zm8.834 5.086l-3.732-2.142c-.882-.519-.771-1.417.252-2.015l4.284-2.473a3.897 3.897 0 013.48-.157l3.732 2.142c.882.519.772 1.417-.252 2.015l-4.299 2.488a3.84 3.84 0 01-1.715.482 3.848 3.848 0 01-1.75-.34zm17.733 10.3l-12.598-7.276c-.898-.519-.788-1.417.236-2.016l4.299-2.488a3.888 3.888 0 013.48-.141l12.599 7.275c.897.52.787 1.417-.252 2.016l-4.236 2.409a3.886 3.886 0 01-3.528.221z" fill="#A9FFCD"/><path d="M271.858 382.4l-12.472-7.181c-.882-.52-.772-1.417.252-2l4.299-2.488a3.851 3.851 0 013.464-.158l12.473 7.181c.882.52.772 1.418-.252 2.016l-4.299 2.473a3.863 3.863 0 01-3.465.157zm8.992 5.181l-3.717-2.142c-.897-.519-.787-1.417.252-2.015l4.284-2.473a3.884 3.884 0 013.48-.157l3.732 2.141c.882.52.772 1.418-.252 2.016l-4.299 2.425a3.882 3.882 0 01-3.48.205zm8.834 5.087l-3.717-2.142c-.897-.52-.787-1.417.236-2.016l4.3-2.488a3.941 3.941 0 013.48-.142l3.716 2.142c.898.52.788 1.417-.252 2.016l-4.283 2.488a3.942 3.942 0 01-3.48.142zm8.819 5.086l-3.669-2.142c-.898-.519-.788-1.417.252-2.015l4.283-2.489a3.892 3.892 0 013.48-.141l3.717 2.141c.897.52.787 1.418-.236 2.016l-4.3 2.473a3.892 3.892 0 01-3.527.157zm8.929 5.134l-3.733-2.142c-.882-.52-.771-1.417.252-2.016l4.299-2.488a3.87 3.87 0 013.465-.142l3.732 2.142c.882.52.772 1.417-.252 2.016l-4.299 2.472a3.85 3.85 0 01-3.464.158zm8.819 5.087l-3.717-2.158c-.897-.504-.787-1.401.236-2l4.3-2.488a3.847 3.847 0 013.48-.142l3.716 2.142c.898.52.788 1.417-.252 2l-4.283 2.52a3.889 3.889 0 01-3.48.126zm8.913 5.133l-3.716-2.11c-.898-.52-.788-1.417.236-2.016l4.299-2.488a3.895 3.895 0 013.496-.22l3.717 2.141c.897.52.787 1.418-.237 2.016l-4.299 2.473a3.894 3.894 0 01-3.496.204zm8.83 5.087l-3.732-2.157c-.882-.504-.772-1.402.252-2l4.299-2.489a3.813 3.813 0 013.464-.141l3.733 2.141c.882.52.771 1.418-.252 2l-4.299 2.489a3.863 3.863 0 01-3.465.157zm8.819 5.071l-3.717-2.142c-.897-.504-.787-1.401.236-2l4.3-2.488a3.847 3.847 0 013.48-.142l3.716 2.142c.898.504.788 1.402-.252 2l-4.283 2.488a3.847 3.847 0 01-3.48.142zm8.914 5.134l-3.717-2.142c-.897-.504-.787-1.402.252-2l4.284-2.488a3.847 3.847 0 013.48-.142l3.716 2.142c.898.504.788 1.401-.236 2l-4.299 2.551a3.849 3.849 0 01-3.48.079z" fill="#00E0FF"/><path d="M369.38 438.573l-12.599-7.229c-.882-.519-.771-1.417.252-2l4.299-2.488a3.864 3.864 0 013.465-.157l12.598 7.228c.898.52.788 1.417-.236 2.016l-4.299 2.488a3.887 3.887 0 01-3.48.142zm-1.386 11.102l-3.733-2.142c-.881-.519-.771-1.417.252-2.015l14.599-8.441a3.898 3.898 0 011.721-.491 3.896 3.896 0 011.759.333l3.717 2.158c.897.504.787 1.401-.237 2l-14.598 8.456a3.873 3.873 0 01-1.723.482 3.875 3.875 0 01-1.757-.34z" fill="#A9FFCD"/><path d="M252.802 383.329l-3.638-2.142c-.898-.519-.787-1.417.252-2.015l4.283-2.473a3.888 3.888 0 013.481-.157l3.716 2.141c.898.52.788 1.418-.236 2.016l-4.299 2.488a3.89 3.89 0 01-3.559.142zm8.835 5.087l-3.733-2.142c-.881-.52-.771-1.418.252-2.016l4.3-2.488a3.863 3.863 0 013.464-.142l3.732 2.142c.882.52.772 1.417-.252 2.016l-4.299 2.472a3.85 3.85 0 01-3.464.158zm8.914 5.134l-3.716-2.142c-.898-.52-.788-1.418.236-2.016l4.299-2.488a3.887 3.887 0 013.48-.142l3.717 2.142c.898.52.787 1.417-.252 2.016l-4.283 2.472a3.888 3.888 0 01-3.481.158zm8.818 5.086l-3.716-2.157c-.898-.504-.788-1.402.252-2l4.283-2.488a3.845 3.845 0 013.481-.142l3.732 2.142c.882.519.771 1.417-.252 2l-4.299 2.488a3.888 3.888 0 01-3.481.157zm35.497 20.425l-30.378-17.511c-.898-.504-.787-1.402.236-2l4.299-2.489a3.85 3.85 0 013.481-.141l30.377 17.496c.882.504.772 1.417-.252 2l-4.299 2.456a3.804 3.804 0 01-3.464.189z" fill="#00E0FF"/><path d="M323.683 424.148l-3.654-2.126c-.897-.504-.787-1.418.237-2l4.299-2.488a3.838 3.838 0 013.48-.142l3.717 2.142c.897.503.787 1.401-.237 2l-4.299 2.488a3.841 3.841 0 01-3.543.126zm8.83 5.086l-3.732-2.142c-.882-.519-.772-1.417.252-2l4.299-2.488a3.864 3.864 0 013.465-.157l3.732 2.157c.882.504.772 1.402-.252 2l-4.299 2.488a3.802 3.802 0 01-3.465.142zm8.914 5.134l-3.733-2.142c-.882-.519-.771-1.417.252-2l4.299-2.488a3.855 3.855 0 013.465-.157l3.732 2.157c.882.504.772 1.402-.252 2l-4.299 2.488a3.815 3.815 0 01-3.464.142zm8.818 5.087l-3.716-2.142c-.898-.52-.788-1.417.252-2.016l4.283-2.472a3.888 3.888 0 013.481-.158l3.716 2.142c.898.52.787 1.417-.236 2.016l-4.299 2.519a3.883 3.883 0 01-3.481.111zm8.835 5.086l-3.732-2.142c-.882-.519-.772-1.417.252-2.015l4.299-2.489a3.86 3.86 0 013.465-.141l3.732 2.141c.882.52.772 1.418-.252 2.016l-4.299 2.473a3.863 3.863 0 01-3.465.157z" fill="#A9FFCD"/><path d="M293.92 357.928l-3.543-2.048c-.882-.504-.772-1.401.252-2l1.433-.834a3.847 3.847 0 013.48-.142l3.543 2.031c.898.52.788 1.418-.252 2.016l-1.433.835a3.9 3.9 0 01-3.48.142zm8.787 5.086l-3.543-2.047c-.898-.504-.787-1.402.252-2l1.433-.835a3.847 3.847 0 013.48-.142l3.544 2.032c.882.52.771 1.417-.252 2.016l-1.433.819a3.9 3.9 0 01-3.481.157zm8.866 5.087l-3.543-2.048c-.882-.519-.772-1.417.252-2l1.433-.834a3.884 3.884 0 013.48-.158l3.543 2.047c.898.52.788 1.418-.252 2l-1.433.835a3.884 3.884 0 01-3.48.158zm8.834 5.102l-3.527-2.063c-.898-.52-.787-1.417.252-2.016l1.433-.819a3.863 3.863 0 013.464-.157l3.544 2.047c.897.504.787 1.417-.236 2l-1.449.835a3.817 3.817 0 01-3.481.173zm8.815 5.055l-3.543-2.032c-.882-.519-.772-1.417.252-2.015l1.433-.835a3.886 3.886 0 013.48-.142l3.544 2.048c.897.503.771 1.401-.252 2l-1.433.834a3.851 3.851 0 01-3.481.142zm8.835 5.087l-3.544-2.048c-.897-.504-.787-1.401.237-2l1.448-.834a3.86 3.86 0 013.465-.142l3.543 2.047c.898.504.788 1.402-.236 2l-1.449.835a3.815 3.815 0 01-3.464.142zm8.818 5.086l-3.543-2.047c-.882-.504-.771-1.402.252-2l1.433-.835a3.85 3.85 0 013.48-.142l3.544 2.032c.882.52.771 1.417-.252 2.016l-1.433.834a3.888 3.888 0 01-3.481.142zm8.835 5.087l-3.543-2.047c-.898-.504-.787-1.418.236-2l1.449-.835a3.815 3.815 0 013.465-.142l3.543 2.032c.898.519.787 1.417-.236 2.015l-1.449.819a3.851 3.851 0 01-3.465.158zm8.819 5.087l-3.543-2.048c-.882-.519-.772-1.417.252-2l1.433-.834a3.894 3.894 0 013.48-.158l3.544 2.047c.881.52.771 1.418-.252 2l-1.434.835a3.885 3.885 0 01-3.48.158zm8.835 5.07l-3.544-2.031c-.897-.52-.787-1.417.237-2.016l1.448-.819a3.863 3.863 0 013.465-.157l3.543 2.047c.898.504.788 1.402-.236 2l-1.449.835a3.8 3.8 0 01-1.715.487 3.792 3.792 0 01-1.749-.346zm9.086 5.244l-3.543-2.047c-.882-.504-.772-1.402.252-2l1.433-.835a3.838 3.838 0 013.48-.141l3.543 2.031c.882.52.772 1.418-.251 2.016l-1.434.835a3.892 3.892 0 01-3.48.141zm8.835 5.087l-3.544-2.047c-.897-.504-.787-1.402.236-2l1.449-.835a3.815 3.815 0 013.465-.142l3.543 2.032c.898.52.788 1.417-.236 2.016l-1.449.819a3.86 3.86 0 01-3.464.157zm8.818 5.087l-3.543-2.047c-.882-.52-.772-1.418.252-2l1.433-.835a3.884 3.884 0 013.48-.158l3.544 2.048c.882.519.771 1.417-.252 2l-1.433.834a3.888 3.888 0 01-3.481.158zm8.835 5.07l-3.543-2.031c-.898-.52-.788-1.417.236-2.016l1.449-.819a3.864 3.864 0 013.464-.157l3.543 2.047c.898.504.788 1.417-.236 2l-1.449.835a3.813 3.813 0 01-3.464.141zM283.81 363.896l-3.716-2.142c-.898-.504-.788-1.401.252-2l4.283-2.488a3.85 3.85 0 013.481-.142l3.716 2.142c.898.504.787 1.402-.236 2l-4.331 2.488a3.848 3.848 0 01-3.449.142zm8.803 5.087l-3.733-2.079c-.882-.52-.771-1.417.252-2l4.299-2.488a3.855 3.855 0 013.465-.158l3.732 2.158c.898.504.772 1.401-.252 2l-4.283 2.488a3.849 3.849 0 01-3.48.079zm8.914 5.133l-3.716-2.142c-.898-.503-.788-1.417.236-1.999l4.299-2.489a3.897 3.897 0 013.48-.157l3.717 2.157c.897.504.787 1.402-.252 2l-4.284 2.488a3.838 3.838 0 01-3.48.142zm8.834 5.087l-3.732-2.142c-.882-.519-.772-1.417.252-2l4.299-2.488a3.851 3.851 0 013.465-.157l3.732 2.141c.882.52.771 1.418-.252 2.016l-4.299 2.488a3.86 3.86 0 01-3.465.142zm8.819 5.024l-3.716-2.142c-.898-.52-.788-1.417.236-2.016l4.299-2.488a3.945 3.945 0 013.481-.142l3.716 2.142c.898.52.787 1.417-.252 2.016l-4.283 2.63a3.95 3.95 0 01-3.481 0zm8.909 5.196l-3.717-2.141c-.897-.52-.787-1.418.237-2.016l4.299-2.473a3.897 3.897 0 013.48-.157l3.717 2.142c.897.519.787 1.417-.252 2.015l-4.284 2.489a3.892 3.892 0 01-3.48.141zm8.835 5.087l-3.733-2.142c-.882-.52-.771-1.417.252-2.016l4.299-2.488a3.87 3.87 0 013.465-.142l3.732 2.142c.882.52.772 1.417-.252 2.016l-4.299 2.472a3.85 3.85 0 01-3.464.158zm8.913 5.134l-3.764-2.142c-.882-.52-.772-1.417.252-2.016l4.299-2.472a3.851 3.851 0 013.465-.158l3.732 2.142c.882.52.772 1.417-.252 2.016l-4.299 2.488a3.855 3.855 0 01-3.433.142zm8.835 5.055l-3.717-2.142c-.897-.519-.787-1.417.252-2.016l4.284-2.488a3.878 3.878 0 013.48-.141l3.716 2.141c.898.52.788 1.418-.236 2.016l-4.299 2.472a3.894 3.894 0 01-3.48.158zm8.817 5.118l-3.732-2.157c-.882-.504-.772-1.402.252-2l4.299-2.488a3.802 3.802 0 013.464-.142l3.733 2.142c.882.519.771 1.417-.252 2l-4.299 2.488a3.868 3.868 0 01-3.465.157zm8.914 5.134l-3.732-2.157c-.882-.504-.772-1.402.252-2.001l4.299-2.488a3.805 3.805 0 013.464-.141l3.733 2.141c.897.52.771 1.418-.252 2l-4.284 2.488a3.898 3.898 0 01-1.721.491 3.896 3.896 0 01-1.759-.333zm8.819 5.071l-3.717-2.142c-.897-.504-.787-1.401.252-2l4.284-2.488a3.847 3.847 0 013.48-.142l3.716 2.142c.898.504.788 1.401-.236 2l-4.299 2.488a3.847 3.847 0 01-3.48.142zm8.834 5.149l-3.732-2.142c-.882-.519-.772-1.417.252-2l4.299-2.488a3.864 3.864 0 013.465-.157l3.732 2.157c.882.504.772 1.402-.252 2l-4.299 2.488a3.802 3.802 0 01-3.465.142zm8.914 5.071l-3.716-2.142c-.898-.504-.788-1.401.236-2l4.299-2.488a3.847 3.847 0 013.48-.142l3.717 2.142c.897.504.787 1.402-.252 2l-4.284 2.488a3.834 3.834 0 01-3.48.142zm-125.364-60.299l-3.732-2.157c-.882-.504-.771-1.402.252-2l4.299-2.488a3.806 3.806 0 013.465-.142l3.732 2.142c.882.519.772 1.417-.252 2l-4.299 2.488a3.865 3.865 0 01-3.465.157zm8.819 5.071l-3.717-2.142c-.898-.504-.787-1.401.236-2l4.3-2.488a3.844 3.844 0 013.48-.142l3.716 2.142c.898.504.788 1.402-.252 2l-4.283 2.488a3.834 3.834 0 01-3.48.142zm8.912 5.134l-3.716-2.142c-.898-.504-.788-1.401.251-2l4.284-2.488a3.847 3.847 0 013.48-.142l3.717 2.142c.897.504.787 1.401-.236 2l-4.284 2.488a3.843 3.843 0 01-3.496.142zm8.835 5.086l-3.764-2.142c-.882-.519-.772-1.417.252-2l4.299-2.488a3.864 3.864 0 013.465-.157l3.732 2.157c.882.504.772 1.402-.252 2l-4.299 2.488a3.799 3.799 0 01-3.433.142zm8.835 5.087l-3.717-2.142c-.897-.52-.787-1.417.236-2.016l4.3-2.472a3.884 3.884 0 013.48-.158l3.716 2.142c.898.52.788 1.417-.236 2.016l-4.299 2.488a3.888 3.888 0 01-3.48.142zm8.897 5.134l-3.717-2.142c-.898-.52-.787-1.417.252-2l4.284-2.488a3.885 3.885 0 013.48-.158l3.716 2.158c.898.504.788 1.401-.236 2l-4.299 2.425a3.85 3.85 0 01-3.48.205zm8.835 5.086l-3.733-2.141c-.882-.52-.771-1.418.252-2.016l4.299-2.473a3.863 3.863 0 013.465-.157l3.732 2.142c.882.519.772 1.417-.252 2.015l-4.299 2.489a3.856 3.856 0 01-3.464.141zm8.909 5.134l-3.717-2.141c-.897-.52-.787-1.418.237-2.016l4.299-2.473a3.897 3.897 0 013.48-.157l3.717 2.142c.897.519.787 1.417-.252 2.015l-4.284 2.489a3.892 3.892 0 01-3.48.141zm8.818 5.087l-3.716-2.142c-.898-.52-.788-1.417.252-2.016l4.283-2.488a3.942 3.942 0 013.48-.142l3.717 2.142c.897.52.787 1.417-.236 2.016l-4.3 2.488a3.941 3.941 0 01-3.48.142zm8.834 5.087l-3.732-2.142c-.882-.52-.771-1.417.252-2.016l4.299-2.488a3.87 3.87 0 013.465-.142l3.732 2.142c.898.52.772 1.417-.252 2.016l-4.283 2.504a3.893 3.893 0 01-3.481.126zm8.915 5.133l-3.716-2.11c-.898-.52-.788-1.417.236-2.016l4.299-2.488a3.9 3.9 0 013.48-.142l3.717 2.142c.897.52.787 1.418-.252 2.016l-4.284 2.441a3.884 3.884 0 01-3.48.157zm8.834 5.087l-3.779-2.157c-.882-.504-.772-1.402.252-2l4.299-2.488a3.802 3.802 0 013.464-.142l3.733 2.141c.881.52.771 1.418-.252 2l-4.3 2.489a3.854 3.854 0 01-3.417.157zm17.732 10.22l-12.599-7.291c-.897-.504-.787-1.402.236-2l4.3-2.488a3.834 3.834 0 013.48-.142l12.598 7.275c.898.52.788 1.418-.236 2l-4.299 2.552a3.885 3.885 0 01-3.48.094zM271.7 380.983l-12.473-7.166c-.882-.519-.771-1.417.252-2.016l4.299-2.488a3.86 3.86 0 013.465-.141l12.472 7.181c.882.504.772 1.401-.252 2l-4.299 2.488a3.815 3.815 0 01-3.464.142zm8.961 5.196l-3.732-2.141c-.898-.52-.772-1.418.252-2.016l4.283-2.488a3.888 3.888 0 013.48-.142l3.733 2.142c.881.519.771 1.417-.252 2l-4.3 2.488a3.864 3.864 0 01-3.464.157zm8.865 5.087l-3.716-2.157c-.898-.504-.788-1.402.236-2l4.299-2.489a3.838 3.838 0 013.48-.141l3.717 2.141c.898.52.787 1.418-.252 2l-4.284 2.489a3.893 3.893 0 01-3.48.157zm8.819 5.071l-3.716-2.142c-.898-.504-.787-1.417.252-2l4.283-2.488a3.851 3.851 0 013.481-.142l3.716 2.142c.898.504.788 1.401-.236 2l-4.299 2.488a3.85 3.85 0 01-3.481.142zm8.93 5.212l-3.732-2.141c-.882-.504-.772-1.402.252-2l4.299-2.488a3.815 3.815 0 013.465-.142l3.748 2.047c.882.504.771 1.402-.252 2l-4.3 2.488a3.803 3.803 0 01-3.48.236zm8.818 5.008l-3.716-2.141c-.898-.52-.788-1.418.236-2l4.268-2.441a3.898 3.898 0 011.721-.491 3.896 3.896 0 011.759.333l3.716 2.158c.898.504.788 1.401-.251 2l-4.284 2.488a3.856 3.856 0 01-1.713.456 3.853 3.853 0 01-1.736-.362zm8.914 5.134l-3.716-2.141c-.898-.504-.788-1.418.252-2l4.283-2.489a3.85 3.85 0 013.481-.141l3.716 2.141c.898.504.787 1.402-.236 2l-4.299 2.489a3.837 3.837 0 01-3.481.141zm8.83 5.087l-3.732-2.142c-.882-.52-.772-1.417.252-2l4.299-2.488a3.851 3.851 0 013.464-.158l3.733 2.158c.882.504.771 1.401-.252 2l-4.252 2.488a3.811 3.811 0 01-3.512.142zm8.818 5.086l-3.732-2.141c-.898-.52-.788-1.418.236-2.016l4.299-2.473a3.897 3.897 0 013.48-.157l3.717 2.142c.898.519.787 1.417-.252 2.015l-4.284 2.489a3.898 3.898 0 01-3.464.141zm8.867 5.134l-3.716-2.142c-.898-.519-.788-1.417.252-2.015l4.283-2.473a3.884 3.884 0 013.48-.157l3.717 2.141c.897.52.787 1.418-.236 2.016l-4.3 2.488a3.887 3.887 0 01-3.48.142zm17.857 10.315l-12.709-7.418c-.882-.519-.771-1.417.252-2.015l4.3-2.488a3.85 3.85 0 013.464-.142l12.709 7.386c.897.503.787 1.401-.237 2l-4.299 2.488a3.84 3.84 0 01-3.48.189zm-1.543 10.96l-3.717-2.157c-.897-.504-.787-1.402.236-2l14.599-8.457a3.878 3.878 0 013.48-.141l3.717 2.141c.897.52.787 1.418-.237 2.016l-14.598 8.441a3.884 3.884 0 01-3.48.157zm-115.191-66.346l-3.717-2.157c-.897-.504-.787-1.402.252-2l4.284-2.488a3.834 3.834 0 013.48-.142l3.717 2.142c.897.519.787 1.417-.237 2l-4.299 2.488a3.884 3.884 0 01-3.48.157zm8.835 5.071l-3.732-2.141c-.882-.504-.772-1.402.252-2l4.299-2.489a3.809 3.809 0 013.465-.141l3.732 2.141c.882.504.772 1.402-.252 2l-4.331 2.489a3.81 3.81 0 01-3.433.141zm8.913 5.102l-3.717-2.141c-.897-.504-.787-1.402.236-2l4.3-2.488a3.838 3.838 0 013.48-.142l3.716 2.142c.898.503.788 1.401-.252 2l-4.283 2.488a3.847 3.847 0 01-3.48.141zm8.835 5.119l-3.733-2.142c-.897-.52-.771-1.417.252-2l4.284-2.551a3.884 3.884 0 013.48-.158l3.732 2.158c.882.504.772 1.401-.252 2l-4.299 2.488a3.814 3.814 0 01-3.464.205zm35.479 20.44l-30.378-17.496c-.897-.519-.787-1.417.237-2.015l4.299-2.473a3.884 3.884 0 013.48-.157l30.378 17.512c.882.503.772 1.401-.252 2l-4.299 2.488a3.86 3.86 0 01-3.465.141zm8.819 5.087l-3.716-2.141c-.898-.52-.788-1.418.236-2.016l4.299-2.488a3.932 3.932 0 013.481-.142l3.716 2.142c.898.519.788 1.417-.236 2.015l-4.299 2.488a3.932 3.932 0 01-3.481.142zm8.83 5.087l-3.732-2.142c-.882-.52-.772-1.418.252-2.016l4.299-2.488a3.857 3.857 0 013.465-.142l3.732 2.142c.882.52.772 1.417-.252 2.016l-4.346 2.472a3.862 3.862 0 01-3.418.158zm8.914 5.212l-3.733-2.141c-.882-.52-.771-1.418.252-2.016l4.3-2.488a3.855 3.855 0 013.464-.142l3.732 2.142c.882.519.772 1.417-.252 2.015l-4.299 2.473a3.85 3.85 0 01-3.464.157zm8.818 5.008l-3.716-2.157c-.898-.504-.787-1.402.252-2l4.283-2.488a3.845 3.845 0 013.481-.142l3.716 2.142c.898.519.788 1.417-.236 2l-4.299 2.488a3.888 3.888 0 01-3.481.157zm8.835 5.071l-3.732-2.205c-.882-.504-.772-1.402.252-2l4.299-2.488a3.815 3.815 0 013.465-.142l3.732 2.142c.882.504.772 1.401-.252 2l-4.299 2.488a3.815 3.815 0 01-3.465.205z" fill="#FAFCFF"/><g filter="url(#filter0_d_872_253)"><path fill-rule="evenodd" clip-rule="evenodd" d="M41 399a4 4 0 014-4h75a4 4 0 010 8H45a4 4 0 01-4-4z" fill="#00E0FF"/></g><g opacity=".7" filter="url(#filter1_d_872_253)"><path fill-rule="evenodd" clip-rule="evenodd" d="M221 319.5a1.5 1.5 0 011.5-1.5h20a1.5 1.5 0 010 3h-20a1.5 1.5 0 01-1.5-1.5z" fill="#00E0FF"/></g><g filter="url(#filter2_d_872_253)"><path fill-rule="evenodd" clip-rule="evenodd" d="M164 490a4 4 0 014-4h63a4 4 0 010 8h-63a4 4 0 01-4-4z" fill="#A9FFCD"/></g><g filter="url(#filter3_d_872_253)"><path fill-rule="evenodd" clip-rule="evenodd" d="M282 283a4 4 0 014-4h27a4 4 0 010 8h-27a4 4 0 01-4-4z" fill="#A9FFCD"/></g></g><defs><linearGradient id="paint0_linear_872_253" x1="171.113" y1="156.07" x2="244.8" y2="42.887" gradientUnits="userSpaceOnUse"><stop stop-color="#9C8CBE"/><stop offset="1" stop-color="#fff"/></linearGradient><linearGradient id="paint1_linear_872_253" x1="191.114" y1="169.172" x2="264.802" y2="55.974" gradientUnits="userSpaceOnUse"><stop stop-color="#9C8CBE"/><stop offset="1" stop-color="#fff"/></linearGradient><linearGradient id="paint2_linear_872_253" x1="205.802" y1="178.448" x2="279.489" y2="65.249" gradientUnits="userSpaceOnUse"><stop stop-color="#9C8CBE"/><stop offset="1" stop-color="#fff"/></linearGradient><linearGradient id="paint3_linear_872_253" x1="213.784" y1="182.826" x2="287.456" y2="69.627" gradientUnits="userSpaceOnUse"><stop stop-color="#9C8CBE"/><stop offset="1" stop-color="#fff"/></linearGradient><linearGradient id="paint4_linear_872_253" x1="253.15" y1="209.975" x2="326.838" y2="96.776" gradientUnits="userSpaceOnUse"><stop stop-color="#9C8CBE"/><stop offset="1" stop-color="#fff"/></linearGradient><linearGradient id="paint5_linear_872_253" x1="384.281" y1="336.306" x2="376.612" y2="320.085" gradientUnits="userSpaceOnUse"><stop stop-color="#fff"/><stop offset="1" stop-color="#FFF6FF"/></linearGradient><filter id="filter0_d_872_253" x="1" y="355" width="163" height="88" filterUnits="userSpaceOnUse" color-interpolation-filters="sRGB"><feFlood flood-opacity="0" result="BackgroundImageFix"/><feColorMatrix in="SourceAlpha" values="0 0 0 0 0 0 0 0 0 0 0 0 0 0 0 0 0 0 127 0" result="hardAlpha"/><feOffset/><feGaussianBlur stdDeviation="20"/><feComposite in2="hardAlpha" operator="out"/><feColorMatrix values="0 0 0 0 0 0 0 0 0 0.878431 0 0 0 0 1 0 0 0 1 0"/><feBlend in2="BackgroundImageFix" result="effect1_dropShadow_872_253"/><feBlend in="SourceGraphic" in2="effect1_dropShadow_872_253" result="shape"/></filter><filter id="filter1_d_872_253" x="191" y="288" width="83" height="63" filterUnits="userSpaceOnUse" color-interpolation-filters="sRGB"><feFlood flood-opacity="0" result="BackgroundImageFix"/><feColorMatrix in="SourceAlpha" values="0 0 0 0 0 0 0 0 0 0 0 0 0 0 0 0 0 0 127 0" result="hardAlpha"/><feOffset/><feGaussianBlur stdDeviation="15"/><feComposite in2="hardAlpha" operator="out"/><feColorMatrix values="0 0 0 0 0 0 0 0 0 0.878431 0 0 0 0 1 0 0 0 1 0"/><feBlend in2="BackgroundImageFix" result="effect1_dropShadow_872_253"/><feBlend in="SourceGraphic" in2="effect1_dropShadow_872_253" result="shape"/></filter><filter id="filter2_d_872_253" x="124" y="446" width="151" height="88" filterUnits="userSpaceOnUse" color-interpolation-filters="sRGB"><feFlood flood-opacity="0" result="BackgroundImageFix"/><feColorMatrix in="SourceAlpha" values="0 0 0 0 0 0 0 0 0 0 0 0 0 0 0 0 0 0 127 0" result="hardAlpha"/><feOffset/><feGaussianBlur stdDeviation="20"/><feComposite in2="hardAlpha" operator="out"/><feColorMatrix values="0 0 0 0 0.662745 0 0 0 0 1 0 0 0 0 0.803922 0 0 0 1 0"/><feBlend in2="BackgroundImageFix" result="effect1_dropShadow_872_253"/><feBlend in="SourceGraphic" in2="effect1_dropShadow_872_253" result="shape"/></filter><filter id="filter3_d_872_253" x="242" y="239" width="115" height="88" filterUnits="userSpaceOnUse" color-interpolation-filters="sRGB"><feFlood flood-opacity="0" result="BackgroundImageFix"/><feColorMatrix in="SourceAlpha" values="0 0 0 0 0 0 0 0 0 0 0 0 0 0 0 0 0 0 127 0" result="hardAlpha"/><feOffset/><feGaussianBlur stdDeviation="20"/><feComposite in2="hardAlpha" operator="out"/><feColorMatrix values="0 0 0 0 0.662745 0 0 0 0 1 0 0 0 0 0.803922 0 0 0 1 0"/><feBlend in2="BackgroundImageFix" result="effect1_dropShadow_872_253"/><feBlend in="SourceGraphic" in2="effect1_dropShadow_872_253" result="shape"/></filter><clipPath id="clip0_872_253"><path fill="#fff" d="M0 0h720v550H0z"/></clipPath></defs></svg>