<svg width="155" height="40" fill="none" xmlns="http://www.w3.org/2000/svg"><g clip-path="url(#clip0_1_27)"><path d="M23.944 33.067V11.978h8.634c2.343 0 4.147.464 5.412 1.39 1.264.928 1.897 2.304 1.897 4.129 0 1.168-.242 2.134-.726 2.897-.483.762-1.092 1.279-1.827 1.55V22c.902.261 1.66.811 2.274 1.651.613.831.92 1.956.92 3.375 0 1.902-.693 3.385-2.078 4.447-1.386 1.062-3.227 1.593-5.523 1.593h-8.983zm5.677-3.925h2.706c.827 0 1.437-.232 1.827-.695.39-.473.586-1.11.586-1.912 0-.773-.195-1.39-.586-1.854-.39-.473-1-.71-1.827-.71H29.62v5.171zm0-8.618h2.385c.8 0 1.376-.198 1.73-.594.353-.396.53-.956.53-1.68 0-.715-.177-1.265-.53-1.651-.354-.396-.93-.594-1.73-.594h-2.385v4.519zm13.85 12.543V18.221h5.634v14.846h-5.634zm-.335-18.945c0-.83.27-1.526.809-2.086.548-.56 1.334-.84 2.357-.84 1.014 0 1.79.28 2.33.84.548.56.822 1.256.822 2.086 0 .83-.274 1.53-.823 2.1-.548.57-1.334.855-2.357.855-1.004 0-1.78-.285-2.33-.855-.539-.57-.808-1.27-.808-2.1zm8.703 18.945v-3.404l5.635-7.227h-5.496V18.22h12.846v3.375l-5.719 7.329h6.18v4.142H51.838zm16.039 0V18.221h5.412l.055 1.68h.084c.381-.657.94-1.154 1.674-1.492a5.573 5.573 0 012.357-.507c1.032 0 1.934.232 2.706.696a3.71 3.71 0 011.632 1.911h.042c.437-.81 1.115-1.448 2.036-1.911a6.265 6.265 0 012.873-.71c1.423 0 2.59.483 3.501 1.448.911.956 1.367 2.55 1.367 4.78v8.951h-5.593v-8.936c0-.648-.126-1.135-.377-1.463-.241-.338-.618-.512-1.13-.522-.455 0-.85.135-1.185.406-.335.26-.6.647-.795 1.159v9.356h-5.593v-8.879c0-.675-.126-1.182-.377-1.52-.25-.348-.646-.522-1.185-.522-.447 0-.832.13-1.158.391-.325.251-.576.647-.753 1.188v9.342h-5.593zm26.43-7.213v-.463c0-2.337.74-4.191 2.218-5.562 1.478-1.371 3.366-2.057 5.663-2.057 2.296 0 4.105.652 5.425 1.955 1.33 1.304 1.995 3.114 1.995 5.432v1.666h-11.66v-2.709h6.206v-.29c.01-.608-.167-1.115-.53-1.52-.353-.406-.86-.609-1.52-.609-.725 0-1.288.275-1.688.826-.39.54-.585 1.37-.585 2.491v1.13c0 1.11.218 1.94.655 2.491.437.55 1.051.826 1.841.826.632 0 1.172-.174 1.618-.522a4.513 4.513 0 001.102-1.188l4.254 2.072c-.465 1.178-1.297 2.085-2.497 2.723-1.19.637-2.645.956-4.365.956-2.502 0-4.482-.686-5.942-2.057-1.46-1.38-2.19-3.244-2.19-5.59zm17.225.015v-.464c0-2.23.591-4.031 1.771-5.402 1.191-1.381 2.72-2.072 4.589-2.072.884 0 1.651.16 2.302.478.659.319 1.157.73 1.493 1.231v-8.473h5.551v21.9h-5.412l-.056-1.68h-.056c-.288.57-.776 1.043-1.465 1.42-.678.366-1.459.55-2.343.55-1.999 0-3.561-.69-4.686-2.071-1.125-1.381-1.688-3.187-1.688-5.417zm5.677.246c0 .975.195 1.743.586 2.303.399.56.967.84 1.701.84.521 0 .962-.145 1.325-.435.363-.299.632-.67.81-1.115v-4.142a2.622 2.622 0 00-.768-1.101c-.334-.29-.786-.435-1.353-.435-.716 0-1.278.28-1.687.84-.41.56-.614 1.328-.614 2.303v.942zm13.501 6.952V18.221h5.634v14.846h-5.634zm-.335-18.945c0-.83.269-1.526.808-2.086.549-.56 1.336-.84 2.358-.84 1.014 0 1.79.28 2.329.84.549.56.823 1.256.823 2.086 0 .83-.274 1.53-.823 2.1-.548.57-1.334.855-2.356.855-1.005 0-1.782-.285-2.331-.855-.539-.57-.808-1.27-.808-2.1zm8.815 14.585c0-1.709.632-2.983 1.896-3.823 1.265-.84 2.869-1.26 4.812-1.26h2.734v-.696c0-.492-.121-.888-.362-1.187-.233-.3-.656-.45-1.27-.45s-1.051.126-1.311.377c-.251.242-.377.565-.377.97v.32l-5.356-.015v-.304c0-1.478.683-2.65 2.051-3.52 1.376-.879 3.142-1.318 5.3-1.318 2.195 0 3.891.42 5.09 1.26 1.21.83 1.814 2.158 1.814 3.983v6.764c0 .59.056 1.154.167 1.695.112.531.265.98.461 1.347v.217h-5.524a3.409 3.409 0 01-.279-.81 8.059 8.059 0 01-.153-.971c-.261.521-.805.994-1.632 1.419-.827.415-1.841.623-3.041.623-1.469 0-2.673-.377-3.612-1.13-.939-.763-1.408-1.926-1.408-3.49zm5.578-.535c0 .492.135.898.405 1.216.27.319.702.478 1.297.478.679 0 1.208-.212 1.59-.637.381-.435.572-1 .572-1.695v-.927h-1.59c-.8 0-1.381.13-1.744.391-.352.251-.53.642-.53 1.174z" fill="#101010"/><path d="M12.77 25.525H7.981v7.572h4.79v-7.572zm7.982-7.976h-4.79v15.517h4.79V17.547z" fill="#000"/><path d="M0 0h39.907v3.19H0V0z" fill="#F40F0F"/><path d="M0 39.883V0h3.193v39.883H0z" fill="#F40F0F"/><path d="M0 36.692h39.907v3.191H0v-3.19zM36.715 9.384V0h3.192v9.384h-3.192z" fill="#F40F0F"/></g><defs><clipPath id="clip0_1_27"><path fill="#fff" d="M0 0h155v39.883H0z"/></clipPath></defs></svg>