<svg xmlns="http://www.w3.org/2000/svg" viewBox="0 0 211.8 211.8"><path fill="#BD1E1E" d="M.1 0h211.8v211.8H.1z"/><path d="M112.2 148.3c3.6 0 6.5-2.9 6.5-6.5s-2.9-6.5-6.5-6.5-6.5 2.9-6.5 6.5 2.9 6.5 6.5 6.5m66.6-42.4c0 13.7-6 24-19.4 24-13.6 0-19.7-9.8-19.7-24 0-13.4 6.2-24 19.2-24 13.8 0 19.9 10.5 19.9 24m23.3.5c0-26-17.3-43.9-42.8-43.9-26.6 0-42.8 18.7-42.8 44.4 0 24.6 18 42.4 42.8 42.4 24.9 0 42.8-18.5 42.8-42.9M77.2 120.3c0 5.8-3.6 9.5-11.6 9.5H45.4v-16.9h20.2c7.7 0 11.6 2.4 11.6 7.4m25.8 0c0-18.7-14.5-21.1-28.9-21.1H45.4V82.1h31.1l.4 11.3h20.9V64.2H11.2v18.5h13.4v46.6H11.2v18.5h57.2c23.2 0 34.6-10.9 34.6-27.5" fill="#FFF"/></svg>