<svg width="80" height="90" viewBox="0 0 80 90" fill="none" xmlns="http://www.w3.org/2000/svg">
<path d="M9.60242 14.8426C9.68516 14.7164 9.74521 14.6193 9.81194 14.5263C11.1678 12.6558 12.7351 10.9468 14.483 9.43294C15.5741 8.48187 16.7246 7.60064 17.9276 6.79456C19.5449 5.70863 21.2429 4.74707 23.007 3.91826C24.21 3.34905 25.4422 2.84327 26.6985 2.40301C28.0391 1.91504 29.4077 1.50715 30.797 1.18152C31.9608 0.923659 33.1272 0.667131 34.299 0.44649C35.0304 0.313574 35.7777 0.251103 36.5131 0.131478C37.4566 -0.0213753 38.4055 0.00520833 39.3544 0.00520833C41.4671 0.00520833 43.5811 -0.0107419 45.6937 0.013183C46.3639 0.0342538 47.0323 0.0937208 47.6956 0.19129C48.5204 0.292306 49.3425 0.415918 50.1619 0.552822C50.6958 0.641875 51.2296 0.760172 51.7634 0.882455C52.5522 1.06455 53.3422 1.24133 54.1216 1.45931C55.0332 1.71318 55.9434 1.98167 56.8362 2.29535C57.8091 2.63827 58.774 3.01044 59.7189 3.42514C60.7118 3.86243 61.6861 4.34226 62.655 4.84069C64.534 5.82336 66.3179 6.97665 67.984 8.28587C68.8937 8.98844 69.7618 9.74289 70.5838 10.5454C70.6279 10.5893 70.6626 10.6425 70.7173 10.7156C70.6299 10.7793 70.5385 10.8375 70.4437 10.8897C68.2407 11.953 66.0369 13.0164 63.8321 14.0797C63.2289 14.3708 62.619 14.6512 62.0264 14.9636C61.7595 15.0965 61.5887 15.0659 61.3738 14.8785C60.9027 14.4638 60.4169 14.0651 59.9244 13.6756C58.4392 12.5155 56.8512 11.4923 55.18 10.6186C53.7316 9.85248 52.2341 9.18245 50.6971 8.61285C49.5387 8.18087 48.3656 7.79807 47.1738 7.47642C46.3623 7.25843 45.5402 7.07767 44.7195 6.89292C44.1576 6.76798 43.5931 6.66031 43.0272 6.55398C42.6922 6.49018 42.3599 6.43303 42.0169 6.39448C40.8416 6.25891 39.6658 6.12998 38.4896 6.0077C38.1613 5.97447 37.8223 5.96915 37.498 5.96383C36.2729 5.94256 35.0464 5.89073 33.8212 5.91731C32.7669 5.93991 31.7139 6.03295 30.6636 6.13396C29.8628 6.21105 29.0621 6.33334 28.2613 6.4636C27.4606 6.59385 26.6451 6.74006 25.8457 6.91817C25.0877 7.08697 24.335 7.28901 23.5903 7.51098C22.6934 7.77681 21.7979 8.05593 20.9211 8.37759C20.0029 8.71519 19.0967 9.08869 18.2025 9.4861C16.4607 10.2619 14.7871 11.1814 13.1991 12.2348C12.0681 12.9768 10.985 13.7888 9.95609 14.6658C9.88268 14.7283 9.80527 14.7841 9.72786 14.84C9.70651 14.8586 9.67982 14.8479 9.60242 14.8426Z" fill="#00A5CD"/>
<path d="M0.00312349 26.4672C0.136582 26.4579 0.247366 26.4446 0.35013 26.4446C4.821 26.4446 9.29188 26.4366 13.7641 26.4446C14.6583 26.4446 15.5538 26.5017 16.4453 26.5775C17.1693 26.6278 17.8893 26.725 18.6006 26.8686C20.4776 27.2241 22.2874 27.8694 23.9643 28.7812C26.5506 30.1671 28.7271 32.2036 30.277 34.688C30.8623 35.6226 31.3578 36.6102 31.757 37.6374C32.1066 38.5262 32.3955 39.4374 32.6218 40.3649C32.81 41.1265 32.9368 41.904 33.0622 42.6789C33.2384 43.7609 33.2651 44.8574 33.2998 45.95C33.3172 46.491 33.2491 47.0333 33.2424 47.5742C33.2172 48.5519 33.1119 49.5259 32.9275 50.4864C32.7547 51.4793 32.513 52.459 32.2041 53.4186C31.9183 54.2962 31.5705 55.1525 31.1631 55.9812C30.7291 56.8567 30.2248 57.696 29.655 58.4906C28.8275 59.6531 27.8528 60.7043 26.755 61.6181C25.5638 62.6018 24.2432 63.4188 22.8299 64.0465C21.9665 64.4381 21.0742 64.7629 20.1608 65.0181C19.372 65.2361 18.5593 65.373 17.7585 65.5245C17.2977 65.6131 16.8327 65.6779 16.3652 65.7186C15.814 65.7651 15.2588 65.7904 14.705 65.793C9.97785 65.8125 5.25118 65.8285 0.524952 65.8409C-0.035575 65.8409 0.000468001 65.8635 0.000468001 65.3225V26.4672H0.00312349ZM6.27569 60.3063C6.43584 60.3142 6.57065 60.3262 6.70678 60.3262C9.00138 60.3262 11.296 60.3262 13.5906 60.3262C14.4759 60.3382 15.361 60.2902 16.2397 60.1827C18.0319 59.9471 19.7483 59.3149 21.2631 58.3325C22.1595 57.7517 22.9684 57.0468 23.6654 56.239C24.4867 55.2847 25.1531 54.2084 25.6406 53.0491C26.065 52.041 26.3839 50.9921 26.5922 49.9189C26.7796 48.9811 26.8969 48.0308 26.9432 47.0758C27.0406 45.1945 26.8657 43.3091 26.424 41.4774C26.204 40.5693 25.891 39.6861 25.4898 38.8417C24.7454 37.2347 23.6464 35.8158 22.2748 34.6907C20.8383 33.529 19.1536 32.7105 17.3501 32.2982C16.3199 32.0651 15.2663 31.9496 14.2098 31.9539C11.7115 31.9407 9.21447 31.9539 6.71745 31.9539H6.4612C6.43435 31.952 6.40739 31.9558 6.38214 31.9651C6.35689 31.9744 6.33393 31.989 6.31483 32.0079C6.29572 32.0268 6.28092 32.0496 6.27141 32.0746C6.2619 32.0997 6.25789 32.1266 6.25968 32.1533C6.25968 32.2278 6.25968 32.3022 6.25968 32.3766C6.25968 41.5602 6.25968 50.7438 6.25968 59.9275C6.249 60.0524 6.26636 60.1654 6.26636 60.3063H6.27569Z" fill="white"/>
<path d="M52.0855 55.6303C52.1475 55.6678 52.2073 55.7091 52.2643 55.7539C53.4529 56.7906 54.7851 57.6514 56.22 58.3099C57.3908 58.8716 58.608 59.3319 59.8581 59.6855C60.5962 59.8916 61.3262 60.1095 62.0802 60.273C62.6534 60.3874 63.2327 60.4695 63.8152 60.5189C65.0882 60.6545 66.3726 60.6478 67.6441 60.499C68.4929 60.4128 69.3274 60.2204 70.1278 59.9261C71.1955 59.5074 72.1484 58.9199 72.7422 57.8872C73.0082 57.4265 73.1831 56.9194 73.2574 56.3932C73.3641 55.6871 73.3255 54.9667 73.144 54.2759C72.9432 53.5663 72.5431 52.9285 71.9909 52.4376C71.1901 51.6933 70.2452 51.1949 69.2496 50.7722C68.2156 50.3489 67.1561 49.9902 66.0773 49.6982C64.684 49.2995 63.2907 48.9007 61.892 48.5339C60.327 48.1203 58.7863 47.6202 57.277 47.0359C55.797 46.4591 54.4304 45.6948 53.2639 44.5996C52.2729 43.6848 51.5419 42.5257 51.1446 41.2395C50.7795 40.0346 50.6437 38.7724 50.7442 37.5178C50.7826 36.8489 50.8628 36.183 50.9844 35.5241C51.116 34.9241 51.2945 34.3352 51.5183 33.7629C51.8578 32.8912 52.3168 32.0704 52.8822 31.3239C53.5924 30.3649 54.4552 29.528 55.4366 28.8464C56.4275 28.1438 57.5208 27.5969 58.6783 27.2248C59.3577 27.0081 60.0396 26.7928 60.7309 26.624C61.2815 26.4955 61.8395 26.4014 62.4019 26.3422C63.2691 26.2288 64.143 26.1738 65.0176 26.1774C66.0514 26.1961 67.0836 26.268 68.1099 26.3927C68.9494 26.4977 69.7674 26.6891 70.5896 26.8659C71.0338 26.9762 71.4713 27.1116 71.9001 27.2713C73.2409 27.7276 74.5416 28.293 75.7891 28.962C76.6346 29.4131 77.4504 29.9174 78.2314 30.4719C78.2915 30.5145 78.3449 30.565 78.3982 30.6048C78.2821 30.9717 75.7571 35.4523 75.5649 35.6277C75.5275 35.616 75.4923 35.598 75.4608 35.5746C74.4719 34.6083 73.2788 33.9543 72.0443 33.3668C71.0501 32.904 70.0143 32.5355 68.9507 32.2663C68.1493 32.046 67.3304 31.8944 66.503 31.8131C65.8985 31.7559 65.2912 31.7319 64.684 31.7413C63.97 31.7543 63.2572 31.8053 62.5487 31.8941C61.1447 32.0789 59.8208 32.4843 58.7477 33.4718C58.0021 34.1508 57.5032 35.0566 57.3291 36.0478C57.2339 36.5604 57.2043 37.0829 57.241 37.6029C57.3171 38.722 57.7401 39.6737 58.6143 40.4114C59.3752 41.0306 60.2387 41.5127 61.166 41.8362C62.5447 42.3506 63.9687 42.7015 65.3953 43.0697C66.8901 43.4565 68.3861 43.838 69.8715 44.258C71.1347 44.6034 72.3715 45.0382 73.5724 45.5592C74.7842 46.0989 75.9319 46.7448 76.9342 47.6221C78.0219 48.5544 78.8591 49.7422 79.3698 51.0779C79.7422 52.0615 79.8957 53.0849 79.9771 54.127C80.0264 54.9547 79.996 55.7853 79.8863 56.6072C79.7097 58.2193 79.1332 59.7622 78.2087 61.0971C77.418 62.2239 76.4003 63.1745 75.2206 63.8883C74.1403 64.5493 72.9723 65.0562 71.7507 65.3943C70.4479 65.7596 69.1122 65.9964 67.7629 66.1014C66.539 66.1825 65.3118 66.1998 64.0861 66.1532C63.0918 66.132 62.1136 65.9658 61.1273 65.8688C60.6405 65.8124 60.1584 65.7214 59.6846 65.5963C58.7504 65.3677 57.8162 65.1444 56.9073 64.8626C55.7891 64.5159 54.698 64.0876 53.6429 63.5813C52.1742 62.8763 50.7763 62.0333 49.4683 61.0639C49.2308 60.8898 49.2214 60.8765 49.3349 60.6572C50.1837 59.0622 51.0343 57.4707 51.8866 55.8828C51.9478 55.7948 52.0142 55.7104 52.0855 55.6303Z" fill="white"/>
<path d="M44.7025 26.4432V65.4182C44.7025 65.4501 44.7025 65.482 44.7025 65.5139C44.6945 65.8116 44.6732 65.8382 44.3675 65.8396C42.5205 65.8396 40.6743 65.8396 38.829 65.8396C38.518 65.8396 38.4767 65.7917 38.4673 65.4913C38.4673 65.3969 38.4673 65.3012 38.4673 65.2055C38.4673 52.4846 38.4673 39.7632 38.4673 27.0414C38.4673 26.3954 38.4086 26.4459 39.0759 26.4459H44.7025V26.4432Z" fill="white"/>
<path d="M29.3187 85.3875C29.7872 86.1292 30.2529 86.8629 30.7147 87.6006C31.1765 88.3383 31.6663 89.0494 32.1227 89.8601C32.0159 89.8855 31.9076 89.9037 31.7984 89.9146C31.4674 89.9146 31.1311 89.9053 30.8055 89.9213C30.7 89.9327 30.5936 89.912 30.5002 89.8619C30.4068 89.8119 30.3308 89.7348 30.2823 89.6408C29.8499 88.9457 29.4041 88.2585 28.9637 87.5687C28.5874 86.9772 28.2083 86.387 27.8387 85.7916C27.8037 85.7207 27.7483 85.6618 27.6797 85.6222C27.611 85.5827 27.5321 85.5644 27.453 85.5696C26.5668 85.5696 25.682 85.5696 24.7958 85.5696C24.7129 85.5755 24.6304 85.5866 24.5489 85.6028C24.5489 85.7358 24.5289 85.8594 24.5289 85.983C24.5289 87.1509 24.5289 88.3201 24.5289 89.4906C24.5289 89.8694 24.4875 89.9093 24.1072 89.9133C23.8402 89.9133 23.5733 89.9133 23.3064 89.9133C23.0729 89.9053 23.0115 89.8375 22.9981 89.6023C22.9981 89.5279 22.9981 89.4534 22.9981 89.379C22.9981 85.7229 22.9981 82.0664 22.9981 78.4094C22.9981 77.8897 22.9981 77.8897 23.5319 77.8897C24.9613 77.8897 26.392 77.8764 27.8226 77.8897C28.5967 77.899 29.3441 78.0386 30.006 78.4918C30.4939 78.819 30.9039 79.2486 31.2072 79.7505C31.658 80.4821 31.8462 81.3443 31.741 82.1962C31.5795 83.4881 30.979 84.4996 29.7778 85.0991C29.655 85.1616 29.5256 85.2094 29.4015 85.2705C29.3814 85.2878 29.3681 85.3237 29.3187 85.3875ZM24.5502 84.2072C24.6194 84.2248 24.69 84.2368 24.7611 84.2431C25.8821 84.2431 27.0019 84.2577 28.1216 84.2431C29.0291 84.2272 29.6404 83.746 29.99 82.9339C30.2498 82.367 30.3068 81.7286 30.1515 81.1249C29.9393 80.3274 29.4989 79.6881 28.6835 79.397C28.3777 79.3025 28.0587 79.2576 27.7386 79.2641C26.8044 79.2481 25.8822 79.2641 24.9533 79.2641H24.7291C24.7023 79.2616 24.6753 79.2648 24.6499 79.2736C24.6246 79.2824 24.6014 79.2966 24.582 79.3151C24.5626 79.3337 24.5475 79.3562 24.5376 79.3811C24.5278 79.406 24.5234 79.4327 24.5249 79.4595C24.5249 79.5233 24.5249 79.5871 24.5249 79.6509C24.5249 81.0633 24.5249 82.4767 24.5249 83.8909C24.5289 83.9919 24.5422 84.0956 24.5502 84.2072Z" fill="white"/>
<path d="M39.8179 89.9997C38.4046 89.9838 37.2328 89.4361 36.1999 88.519C35.4819 87.8776 34.9372 87.0668 34.6157 86.1611C34.25 85.1576 34.0819 84.1182 34.2474 83.0309C34.4278 81.794 34.9715 80.6379 35.8102 79.708C36.667 78.7537 37.7387 78.0944 39.0345 77.9004C40.0769 77.7448 41.1111 77.8312 42.0587 78.3217C42.9011 78.7417 43.6346 79.3499 44.2021 80.0988C45.1632 81.3536 45.6192 82.9208 45.4806 84.493C45.4239 85.1502 45.2551 85.793 44.9815 86.3937C44.7435 86.962 44.42 87.4909 44.0219 87.9621C43.7401 88.295 43.4218 88.5954 43.073 88.858C42.4404 89.3099 41.7731 89.7153 40.9817 89.8415C40.5947 89.9027 40.2063 89.9479 39.8179 89.9997ZM35.7461 83.9534C35.7338 84.94 36.0178 85.9078 36.5615 86.7326C37.2569 87.7375 38.1337 88.4419 39.4109 88.5589C39.9723 88.6157 40.5394 88.5559 41.0764 88.3834C42.1294 88.0392 42.8501 87.3108 43.3573 86.3644C43.697 85.7247 43.8928 85.019 43.9311 84.2963C44.0099 83.0655 43.739 81.937 43.0143 80.9282C42.367 80.0257 41.5142 79.4502 40.3931 79.2787C38.8597 79.0434 37.6733 79.6442 36.7617 80.8086C36.0557 81.6964 35.7461 82.7531 35.7461 83.9534Z" fill="white"/>
<path d="M19.4307 80.4696L18.3497 81.2286C18.267 81.1196 18.1976 81.0425 18.1429 80.9561C17.8771 80.5255 17.5234 80.1555 17.1047 79.8699C16.6861 79.5844 16.2117 79.3897 15.7126 79.2986C14.8938 79.1231 14.0398 79.2207 13.2823 79.5764C12.7126 79.8489 12.2214 80.2604 11.8543 80.7727C11.3019 81.5266 10.9613 82.4136 10.8674 83.3422C10.7736 84.2709 10.93 85.2076 11.3204 86.0561C11.6009 86.6777 12.015 87.2304 12.5336 87.675C12.842 87.9172 13.178 88.1224 13.5345 88.2864C14.0413 88.5174 14.5969 88.6224 15.1534 88.5921C15.8178 88.5746 16.466 88.3845 17.0338 88.0405C17.5501 87.7207 18.0145 87.3245 18.4111 86.8655C18.4734 86.8085 18.5156 86.733 18.5312 86.6502C18.5419 86.1318 18.5312 85.6135 18.5312 85.0552C17.6744 85.0433 16.8483 85.0552 16.0035 85.0459C15.9472 84.7232 15.9404 84.3938 15.9835 84.069C15.9835 84.0185 16.0742 83.9613 16.1356 83.9361C16.1974 83.9196 16.2616 83.9146 16.3252 83.9214H19.4614C19.4935 83.9214 19.5255 83.9214 19.5575 83.9214C19.7697 83.9414 19.8151 83.9866 19.8244 84.1939C19.8244 84.2564 19.8244 84.3268 19.8244 84.3853C19.8244 86.0751 19.8244 87.7645 19.8244 89.4534C19.8244 89.5278 19.8244 89.6023 19.8244 89.6767C19.8254 89.7089 19.8197 89.7409 19.8077 89.7709C19.7958 89.8008 19.7778 89.828 19.755 89.8507C19.7321 89.8735 19.7048 89.8914 19.6748 89.9033C19.6447 89.9152 19.6125 89.9209 19.5802 89.9199C19.3026 89.9292 19.025 89.9199 18.7474 89.9199C18.5793 89.9199 18.5366 89.803 18.5366 89.6608C18.5366 89.3418 18.5366 89.0228 18.5366 88.7038C18.5366 88.6041 18.5219 88.5044 18.5085 88.3436C18.275 88.5416 18.0895 88.6945 17.908 88.8513C17.2612 89.4217 16.4627 89.7938 15.6085 89.9226C14.8993 90.0351 14.1736 89.9833 13.4878 89.7711C12.5068 89.4568 11.6302 88.8825 10.9521 88.1096C10.227 87.2962 9.71736 86.3153 9.46937 85.2559C9.32456 84.6126 9.27955 83.951 9.33591 83.2941C9.39063 82.4315 9.67889 81.638 10.0633 80.8724C10.452 80.0996 11.018 79.4288 11.7155 78.9145C12.7199 78.1371 13.9782 77.7583 15.2468 77.8512C15.8967 77.876 16.5375 78.0108 17.1419 78.2499C18.0471 78.6444 18.8081 79.3072 19.3213 80.148C19.3538 80.2025 19.381 80.2599 19.4027 80.3194C19.4152 80.3689 19.4245 80.419 19.4307 80.4696Z" fill="white"/>
<path d="M48.3339 77.8924H49.6045C49.7379 77.8924 49.7953 77.9735 49.8047 78.0931C49.814 78.2127 49.8047 78.3057 49.8047 78.4121C49.8047 80.1958 49.8047 81.9809 49.8047 83.7659C49.7954 84.4466 49.8662 85.126 50.0155 85.7902C50.1631 86.4905 50.5015 87.1366 50.9938 87.6577C51.4179 88.0961 51.9657 88.396 52.5646 88.5177C53.1534 88.6257 53.7583 88.6108 54.3409 88.4738C54.9523 88.3514 55.5049 88.0286 55.9104 87.5567C56.6298 86.7313 56.9274 85.7384 56.9501 84.6804C56.9941 82.6096 56.9794 80.5374 56.9874 78.4666C56.9874 77.8565 56.9634 77.8871 57.5586 77.8884C57.7922 77.8884 58.0284 77.8884 58.262 77.8884C58.4955 77.8884 58.5209 77.9349 58.5289 78.1542C58.5289 78.2499 58.5289 78.3456 58.5289 78.4413C58.5289 80.1838 58.5289 81.9264 58.5289 83.6676C58.5398 84.5077 58.4502 85.3461 58.262 86.1651C58.0044 87.2164 57.5093 88.1588 56.6818 88.8752C56.1309 89.3484 55.4705 89.6777 54.76 89.8336C54.0802 89.9733 53.3826 90.0056 52.6927 89.9293C51.9902 89.8683 51.3107 89.6493 50.7055 89.2886C49.8674 88.7968 49.3082 88.0817 48.9118 87.2297C48.6751 86.7066 48.5125 86.1533 48.4287 85.5856C48.3202 84.8374 48.2724 84.0818 48.2859 83.326C48.2859 81.6579 48.2859 79.9898 48.2859 78.3217C48.3059 78.1941 48.3206 78.0612 48.3339 77.8924Z" fill="white"/>
<path d="M63.639 85.5709C63.6297 85.7464 63.619 85.87 63.619 85.9949C63.619 87.1309 63.619 88.2682 63.619 89.4069C63.619 89.4955 63.619 89.5806 63.619 89.6621C63.6219 89.6942 63.6178 89.7265 63.6071 89.757C63.5964 89.7874 63.5793 89.8152 63.557 89.8385C63.5346 89.8618 63.5075 89.88 63.4774 89.892C63.4474 89.904 63.4151 89.9094 63.3828 89.908C63.0304 89.916 62.6781 89.9173 62.3258 89.908C62.2932 89.9081 62.261 89.9015 62.2312 89.8885C62.2014 89.8755 62.1746 89.8564 62.1526 89.8325C62.1306 89.8086 62.1139 89.7804 62.1035 89.7497C62.0931 89.7189 62.0893 89.6864 62.0922 89.6541C62.0922 89.5655 62.0922 89.4804 62.0922 89.3989V78.3975C62.0922 77.8897 62.0922 77.8897 62.6101 77.8897C63.8112 77.8897 65.0003 77.8977 66.1961 77.8897C66.7293 77.8795 67.2622 77.9183 67.7883 78.0054C68.3143 78.1063 68.8063 78.3376 69.2189 78.6779C69.98 79.2784 70.496 80.1338 70.671 81.085C70.8107 81.8107 70.7332 82.5614 70.4481 83.2436C70.1541 84.0507 69.5824 84.7279 68.8346 85.1549C68.3508 85.4312 67.8027 85.5761 67.2451 85.5749H63.6417L63.639 85.5709ZM63.639 84.2258C63.7898 84.2338 63.8939 84.2431 63.998 84.2431C64.7134 84.2431 65.4274 84.2431 66.1427 84.2431C66.5151 84.2431 66.8901 84.2431 67.2611 84.2205C67.5507 84.206 67.8326 84.1222 68.0828 83.9763C68.333 83.8303 68.5442 83.6264 68.6984 83.3818C68.947 83.0266 69.1092 82.6187 69.1722 82.1903C69.2352 81.7619 69.1973 81.3248 69.0615 80.9136C68.7692 79.9938 68.1619 79.381 67.141 79.2946C66.77 79.2641 66.3963 79.2627 66.0239 79.2601C65.3299 79.2601 64.6373 79.2601 63.9433 79.2601C63.6604 79.2601 63.6337 79.2946 63.623 79.5711C63.623 79.603 63.623 79.6349 63.623 79.6668C63.623 81.0686 63.623 82.4709 63.623 83.8736C63.619 83.9786 63.6283 84.0823 63.635 84.2258H63.639Z" fill="white"/>
</svg>
