<svg width="901" height="503" viewBox="0 0 901 503" fill="none" xmlns="http://www.w3.org/2000/svg">
<g filter="url(#filter0_d_309_883)">
<path d="M54.007 451.455C29.8153 437.488 21.5267 406.555 35.4937 382.363" stroke="#00ADD7" stroke-width="4.54915"/>
</g>
<g filter="url(#filter1_d_309_883)">
<path d="M35.4938 382.363C39.5698 375.303 45.0908 369.598 51.4675 365.404" stroke="#00ADD7" stroke-width="18.1966"/>
</g>
<g filter="url(#filter2_d_309_883)">
<path d="M73.5725 357.395C65.7183 358.296 58.1263 361.026 51.4674 365.404" stroke="#00ADD7" stroke-width="18.1966"/>
</g>
<g filter="url(#filter3_d_309_883)">
<path d="M104.586 363.85C94.8266 358.215 83.9699 356.203 73.5725 357.395" stroke="#00ADD7" stroke-width="18.1966"/>
</g>
<g filter="url(#filter4_d_309_883)">
<path d="M104.586 363.85C128.778 377.817 137.066 408.75 123.099 432.942C109.132 457.134 78.1987 465.422 54.0071 451.455" stroke="#00ADD7" stroke-width="18.1966"/>
</g>
<g filter="url(#filter5_d_309_883)">
<path d="M195.474 205.629C166.515 176.67 166.515 129.718 195.474 100.759" stroke="#814AF6" stroke-width="4.54915"/>
</g>
<g filter="url(#filter6_d_309_883)">
<path d="M195.474 100.759C203.925 92.3084 213.909 86.3235 224.53 82.805" stroke="#7653F4" stroke-width="4.54915"/>
</g>
<g filter="url(#filter7_d_309_883)">
<path d="M258.873 79.8506C247.409 78.146 235.622 79.1308 224.53 82.805" stroke="#01ADD7" stroke-width="36.3932"/>
</g>
<g filter="url(#filter8_d_309_883)">
<path d="M300.344 100.76C288.661 89.077 274.05 82.1073 258.873 79.8508" stroke="#01ADD7" stroke-width="36.3932"/>
</g>
<g filter="url(#filter9_d_309_883)">
<path d="M300.344 100.759C329.303 129.718 329.303 176.67 300.344 205.629C271.385 234.588 224.433 234.588 195.474 205.629" stroke="#BFF9CF" stroke-width="36.3932"/>
</g>
<g filter="url(#filter10_d_309_883)">
<rect x="810.262" y="230.668" width="35.9565" height="93.1863" rx="9.09829" fill="#BFF9CF"/>
<rect x="825.729" y="209.569" width="4.54915" height="126.593" rx="2.27457" fill="#BFF9CF"/>
<rect x="737.913" y="284.801" width="35.9565" height="50.7182" rx="9.09829" fill="#BFF9CF"/>
<rect x="753.38" y="276.348" width="4.54915" height="67.6242" rx="2.27457" fill="#BFF9CF"/>
<rect x="691.511" y="346.953" width="35.9565" height="81.8847" rx="9.09829" fill="#BFF9CF"/>
<rect x="706.979" y="328.757" width="4.54915" height="118.278" rx="2.27457" fill="#BFF9CF"/>
<rect x="618.761" y="265.967" width="35.9565" height="87.9116" rx="9.09829" fill="#BFF9CF"/>
<rect x="634.229" y="239.594" width="4.54915" height="131.867" rx="2.27457" fill="#BFF9CF"/>
<rect x="546.412" y="360.865" width="35.9565" height="59.1712" rx="9.09829" fill="#BFF9CF"/>
<rect x="561.879" y="352.412" width="4.54915" height="76.0772" rx="2.27457" fill="#BFF9CF"/>
<rect x="474.062" y="320.188" width="35.9565" height="67.6242" rx="9.09829" fill="#BFF9CF"/>
<rect x="489.529" y="303.282" width="4.54915" height="101.436" rx="2.27457" fill="#BFF9CF"/>
</g>
<g filter="url(#filter11_d_309_883)">
<path d="M277.288 415.733L308.059 314.846C311.129 304.781 321.469 298.811 331.72 301.185L416.268 320.763C426.52 323.137 436.859 317.168 439.929 307.103L465.248 224.093C468.318 214.028 478.657 208.058 488.909 210.432L573.457 230.011C583.708 232.385 594.048 226.415 597.118 216.35L622.436 133.34C625.506 123.275 635.846 117.305 646.097 119.679L730.645 139.258C740.897 141.632 751.236 135.662 754.306 125.597L785.078 24.7101" stroke="#814AF6" stroke-width="12.7376" stroke-linecap="round"/>
</g>
<g filter="url(#filter12_biii_309_883)">
<mask id="path-24-inside-1_309_883" fill="white">
<path fill-rule="evenodd" clip-rule="evenodd" d="M724.372 58C714.322 58 706.175 66.1469 706.175 76.1966C706.175 86.2463 714.322 94.3932 724.372 94.3932L724.372 412.333C724.372 432.433 740.665 448.727 760.765 448.727C780.864 448.727 797.158 432.433 797.158 412.333L797.158 94.3932C807.208 94.3932 815.355 86.2463 815.355 76.1966C815.355 66.1469 807.208 58 797.158 58H724.372Z"/>
</mask>
<path fill-rule="evenodd" clip-rule="evenodd" d="M724.372 58C714.322 58 706.175 66.1469 706.175 76.1966C706.175 86.2463 714.322 94.3932 724.372 94.3932L724.372 412.333C724.372 432.433 740.665 448.727 760.765 448.727C780.864 448.727 797.158 432.433 797.158 412.333L797.158 94.3932C807.208 94.3932 815.355 86.2463 815.355 76.1966C815.355 66.1469 807.208 58 797.158 58H724.372Z" fill="white" fill-opacity="0.1"/>
<path d="M724.372 94.3932H731.65L731.65 87.1145H724.372V94.3932ZM724.372 412.333H717.093H724.372ZM797.158 412.333H789.879H797.158ZM797.158 94.3932V87.1145H789.879V94.3932H797.158ZM713.454 76.1966C713.454 70.1668 718.342 65.2786 724.372 65.2786V50.7214C710.302 50.7214 698.896 62.127 698.896 76.1966H713.454ZM724.372 87.1145C718.342 87.1145 713.454 82.2264 713.454 76.1966H698.896C698.896 90.2662 710.302 101.672 724.372 101.672V87.1145ZM731.65 412.333L731.65 94.3932H717.093L717.093 412.333H731.65ZM760.765 441.448C744.685 441.448 731.65 428.413 731.65 412.333H717.093C717.093 436.453 736.646 456.005 760.765 456.005V441.448ZM789.879 412.333C789.879 428.413 776.844 441.448 760.765 441.448V456.005C784.884 456.005 804.437 436.453 804.437 412.333H789.879ZM789.879 94.3932L789.879 412.333H804.437L804.437 94.3932H789.879ZM808.076 76.1966C808.076 82.2264 803.188 87.1145 797.158 87.1145V101.672C811.228 101.672 822.633 90.2662 822.633 76.1966H808.076ZM797.158 65.2786C803.188 65.2786 808.076 70.1668 808.076 76.1966H822.633C822.633 62.127 811.228 50.7214 797.158 50.7214V65.2786ZM724.372 65.2786H797.158V50.7214H724.372V65.2786Z" fill="url(#paint0_linear_309_883)" fill-opacity="0.1" mask="url(#path-24-inside-1_309_883)"/>
</g>
<g filter="url(#filter13_biii_309_883)">
<mask id="path-26-inside-2_309_883" fill="white">
<path fill-rule="evenodd" clip-rule="evenodd" d="M499.857 58C489.807 58 481.66 66.1469 481.66 76.1966C481.66 86.2463 489.807 94.3932 499.857 94.3932H508.955V254.457C503.172 258.387 498.094 263.707 494.22 270.417L433.349 375.848C414.65 408.237 438.024 448.723 475.423 448.723H597.165C634.564 448.723 657.939 408.237 639.239 375.849L578.368 270.417C574.751 264.151 570.084 259.098 564.773 255.256V94.3932H572.643C582.693 94.3932 590.84 86.2463 590.84 76.1966C590.84 66.1469 582.693 58 572.643 58H499.857Z"/>
</mask>
<path fill-rule="evenodd" clip-rule="evenodd" d="M499.857 58C489.807 58 481.66 66.1469 481.66 76.1966C481.66 86.2463 489.807 94.3932 499.857 94.3932H508.955V254.457C503.172 258.387 498.094 263.707 494.22 270.417L433.349 375.848C414.65 408.237 438.024 448.723 475.423 448.723H597.165C634.564 448.723 657.939 408.237 639.239 375.849L578.368 270.417C574.751 264.151 570.084 259.098 564.773 255.256V94.3932H572.643C582.693 94.3932 590.84 86.2463 590.84 76.1966C590.84 66.1469 582.693 58 572.643 58H499.857Z" fill="white" fill-opacity="0.1"/>
<path d="M508.955 94.3932H516.234V87.1145H508.955V94.3932ZM508.955 254.457L513.046 260.477L516.234 258.311V254.457H508.955ZM494.22 270.417L500.524 274.056L494.22 270.417ZM433.349 375.848L439.653 379.488L433.349 375.848ZM639.239 375.849L632.936 379.488L639.239 375.849ZM578.368 270.417L584.672 266.777L578.368 270.417ZM564.773 255.256H557.494V258.974L560.507 261.154L564.773 255.256ZM564.773 94.3932V87.1145H557.494V94.3932H564.773ZM488.939 76.1966C488.939 70.1668 493.827 65.2786 499.857 65.2786V50.7214C485.787 50.7214 474.381 62.127 474.381 76.1966H488.939ZM499.857 87.1145C493.827 87.1145 488.939 82.2264 488.939 76.1966H474.381C474.381 90.2662 485.787 101.672 499.857 101.672V87.1145ZM508.955 87.1145H499.857V101.672H508.955V87.1145ZM501.676 94.3932V254.457H516.234V94.3932H501.676ZM504.864 248.437C498.182 252.978 492.344 259.109 487.917 266.777L500.524 274.056C503.845 268.305 508.163 263.796 513.046 260.477L504.864 248.437ZM487.917 266.777L427.046 372.209L439.653 379.488L500.524 274.056L487.917 266.777ZM427.046 372.209C405.545 409.45 432.421 456.001 475.423 456.001V441.444C443.627 441.444 423.755 407.024 439.653 379.488L427.046 372.209ZM475.423 456.001H597.165V441.444H475.423V456.001ZM597.165 456.001C640.167 456.001 667.044 409.45 645.543 372.209L632.936 379.488C648.834 407.024 628.961 441.444 597.165 441.444V456.001ZM645.543 372.209L584.672 266.777L572.065 274.056L632.936 379.488L645.543 372.209ZM584.672 266.777C580.539 259.619 575.175 253.797 569.039 249.359L560.507 261.154C564.992 264.398 568.963 268.684 572.065 274.056L584.672 266.777ZM572.051 255.256V94.3932H557.494V255.256H572.051ZM572.643 87.1145H564.773V101.672H572.643V87.1145ZM583.561 76.1966C583.561 82.2264 578.673 87.1145 572.643 87.1145V101.672C586.713 101.672 598.118 90.2662 598.118 76.1966H583.561ZM572.643 65.2786C578.673 65.2786 583.561 70.1668 583.561 76.1966H598.118C598.118 62.127 586.713 50.7214 572.643 50.7214V65.2786ZM499.857 65.2786H572.643V50.7214H499.857V65.2786Z" fill="url(#paint1_linear_309_883)" fill-opacity="0.1" mask="url(#path-26-inside-2_309_883)"/>
</g>
<g filter="url(#filter14_biii_309_883)">
<mask id="path-28-inside-3_309_883" fill="white">
<path fill-rule="evenodd" clip-rule="evenodd" d="M5.64559 115.075C-1.62047 122.341 -1.62047 134.122 5.64558 141.388C12.9104 148.653 24.6881 148.654 31.9545 141.392L98.2205 207.658C60.9923 268.555 68.7267 349.188 121.424 401.885C183.185 463.646 283.321 463.646 345.082 401.885C406.844 340.123 406.844 239.988 345.082 178.226C292.382 125.526 211.742 117.794 150.844 155.03L84.5799 88.7661L84.5838 88.7622C91.8498 81.4962 91.8498 69.7156 84.5838 62.4495C77.3177 55.1835 65.5371 55.1835 58.2711 62.4495L5.64559 115.075Z"/>
</mask>
<path fill-rule="evenodd" clip-rule="evenodd" d="M5.64559 115.075C-1.62047 122.341 -1.62047 134.122 5.64558 141.388C12.9104 148.653 24.6881 148.654 31.9545 141.392L98.2205 207.658C60.9923 268.555 68.7267 349.188 121.424 401.885C183.185 463.646 283.321 463.646 345.082 401.885C406.844 340.123 406.844 239.988 345.082 178.226C292.382 125.526 211.742 117.794 150.844 155.03L84.5799 88.7661L84.5838 88.7622C91.8498 81.4962 91.8498 69.7156 84.5838 62.4495C77.3177 55.1835 65.5371 55.1835 58.2711 62.4495L5.64559 115.075Z" fill="white" fill-opacity="0.1"/>
<path d="M5.64558 141.388L0.49881 146.535H0.498813L5.64558 141.388ZM5.64559 115.075L10.7924 120.222L10.7924 120.222L5.64559 115.075ZM31.9545 141.392L37.1012 136.245L31.9559 131.099L26.8092 136.243L31.9545 141.392ZM98.2205 207.658L104.431 211.454L107.42 206.564L103.367 202.511L98.2205 207.658ZM121.424 401.885L126.57 396.738L121.424 401.885ZM345.082 178.226L350.229 173.079L345.082 178.226ZM150.844 155.03L145.697 160.177L149.75 164.23L154.641 161.24L150.844 155.03ZM84.5799 88.7661L79.4306 83.6219L74.2889 88.7687L79.4331 93.9129L84.5799 88.7661ZM84.5838 88.7622L79.437 83.6155L79.4345 83.618L84.5838 88.7622ZM84.5838 62.4495L79.437 67.5963L84.5838 62.4495ZM58.2711 62.4495L63.4178 67.5963V67.5963L58.2711 62.4495ZM10.7924 136.241C6.36878 131.817 6.36879 124.645 10.7924 120.222L0.498815 109.928C-9.60973 120.037 -9.60972 136.426 0.49881 146.535L10.7924 136.241ZM26.8092 136.243C22.3854 140.665 15.2151 140.664 10.7924 136.241L0.498813 146.535C10.6056 156.641 26.9908 156.643 37.0998 146.54L26.8092 136.243ZM26.8077 146.538L93.0737 212.804L103.367 202.511L37.1012 136.245L26.8077 146.538ZM92.0103 203.861C53.0689 267.561 61.1479 351.902 116.277 407.031L126.57 396.738C76.3055 346.473 68.9158 269.549 104.431 211.454L92.0103 203.861ZM116.277 407.031C180.881 471.635 285.625 471.635 350.229 407.031L339.935 396.738C281.016 455.657 185.489 455.657 126.57 396.738L116.277 407.031ZM350.229 407.031C414.833 342.427 414.833 237.683 350.229 173.079L339.935 183.373C398.855 242.292 398.855 337.819 339.935 396.738L350.229 407.031ZM350.229 173.079C295.097 117.947 210.748 109.87 147.047 148.82L154.641 161.24C212.737 125.717 289.667 133.105 339.935 183.373L350.229 173.079ZM155.99 149.883L89.7267 83.6194L79.4331 93.9129L145.697 160.177L155.99 149.883ZM79.4345 83.618L79.4306 83.6219L89.7292 93.9104L89.7331 93.9065L79.4345 83.618ZM79.437 67.5963C83.8606 72.0199 83.8606 79.1919 79.437 83.6155L89.7306 93.909C99.8391 83.8005 99.8391 67.4113 89.7306 57.3028L79.437 67.5963ZM63.4178 67.5963C67.8414 63.1727 75.0134 63.1727 79.437 67.5963L89.7306 57.3028C79.622 47.1942 63.2328 47.1942 53.1243 57.3028L63.4178 67.5963ZM10.7924 120.222L63.4178 67.5963L53.1243 57.3028L0.498813 109.928L10.7924 120.222Z" fill="url(#paint2_linear_309_883)" fill-opacity="0.1" mask="url(#path-28-inside-3_309_883)"/>
</g>
<defs>
<filter id="filter0_d_309_883" x="6.51606" y="361.308" width="68.5462" height="112.035" filterUnits="userSpaceOnUse" color-interpolation-filters="sRGB">
<feFlood flood-opacity="0" result="BackgroundImageFix"/>
<feColorMatrix in="SourceAlpha" type="matrix" values="0 0 0 0 0 0 0 0 0 0 0 0 0 0 0 0 0 0 127 0" result="hardAlpha"/>
<feOffset/>
<feGaussianBlur stdDeviation="9.95898"/>
<feComposite in2="hardAlpha" operator="out"/>
<feColorMatrix type="matrix" values="0 0 0 0 0 0 0 0 0 0.678431 0 0 0 0 0.843137 0 0 0 1 0"/>
<feBlend mode="normal" in2="BackgroundImageFix" result="effect1_dropShadow_309_883"/>
<feBlend mode="normal" in="SourceGraphic" in2="effect1_dropShadow_309_883" result="shape"/>
</filter>
<filter id="filter1_d_309_883" x="7.69648" y="337.885" width="68.6878" height="68.9456" filterUnits="userSpaceOnUse" color-interpolation-filters="sRGB">
<feFlood flood-opacity="0" result="BackgroundImageFix"/>
<feColorMatrix in="SourceAlpha" type="matrix" values="0 0 0 0 0 0 0 0 0 0 0 0 0 0 0 0 0 0 127 0" result="hardAlpha"/>
<feOffset/>
<feGaussianBlur stdDeviation="9.95898"/>
<feComposite in2="hardAlpha" operator="out"/>
<feColorMatrix type="matrix" values="0 0 0 0 0 0 0 0 0 0.678431 0 0 0 0 0.843137 0 0 0 1 0"/>
<feBlend mode="normal" in2="BackgroundImageFix" result="effect1_dropShadow_309_883"/>
<feBlend mode="normal" in="SourceGraphic" in2="effect1_dropShadow_309_883" result="shape"/>
</filter>
<filter id="filter2_d_309_883" x="26.5505" y="328.438" width="67.9766" height="64.4862" filterUnits="userSpaceOnUse" color-interpolation-filters="sRGB">
<feFlood flood-opacity="0" result="BackgroundImageFix"/>
<feColorMatrix in="SourceAlpha" type="matrix" values="0 0 0 0 0 0 0 0 0 0 0 0 0 0 0 0 0 0 127 0" result="hardAlpha"/>
<feOffset/>
<feGaussianBlur stdDeviation="9.95898"/>
<feComposite in2="hardAlpha" operator="out"/>
<feColorMatrix type="matrix" values="0 0 0 0 0 0 0 0 0 0.678431 0 0 0 0 0.843137 0 0 0 1 0"/>
<feBlend mode="normal" in2="BackgroundImageFix" result="effect1_dropShadow_309_883"/>
<feBlend mode="normal" in="SourceGraphic" in2="effect1_dropShadow_309_883" result="shape"/>
</filter>
<filter id="filter3_d_309_883" x="52.6178" y="328.049" width="76.4354" height="63.5982" filterUnits="userSpaceOnUse" color-interpolation-filters="sRGB">
<feFlood flood-opacity="0" result="BackgroundImageFix"/>
<feColorMatrix in="SourceAlpha" type="matrix" values="0 0 0 0 0 0 0 0 0 0 0 0 0 0 0 0 0 0 127 0" result="hardAlpha"/>
<feOffset/>
<feGaussianBlur stdDeviation="9.95898"/>
<feComposite in2="hardAlpha" operator="out"/>
<feColorMatrix type="matrix" values="0 0 0 0 0 0 0 0 0 0.678431 0 0 0 0 0.843137 0 0 0 1 0"/>
<feBlend mode="normal" in2="BackgroundImageFix" result="effect1_dropShadow_309_883"/>
<feBlend mode="normal" in="SourceGraphic" in2="effect1_dropShadow_309_883" result="shape"/>
</filter>
<filter id="filter4_d_309_883" x="29.54" y="336.052" width="129.362" height="151.205" filterUnits="userSpaceOnUse" color-interpolation-filters="sRGB">
<feFlood flood-opacity="0" result="BackgroundImageFix"/>
<feColorMatrix in="SourceAlpha" type="matrix" values="0 0 0 0 0 0 0 0 0 0 0 0 0 0 0 0 0 0 127 0" result="hardAlpha"/>
<feOffset/>
<feGaussianBlur stdDeviation="9.95898"/>
<feComposite in2="hardAlpha" operator="out"/>
<feColorMatrix type="matrix" values="0 0 0 0 0 0 0 0 0 0.678431 0 0 0 0 0.843137 0 0 0 1 0"/>
<feBlend mode="normal" in2="BackgroundImageFix" result="effect1_dropShadow_309_883"/>
<feBlend mode="normal" in="SourceGraphic" in2="effect1_dropShadow_309_883" result="shape"/>
</filter>
<filter id="filter5_d_309_883" x="144.185" y="71.8562" width="80.192" height="162.676" filterUnits="userSpaceOnUse" color-interpolation-filters="sRGB">
<feFlood flood-opacity="0" result="BackgroundImageFix"/>
<feColorMatrix in="SourceAlpha" type="matrix" values="0 0 0 0 0 0 0 0 0 0 0 0 0 0 0 0 0 0 127 0" result="hardAlpha"/>
<feOffset/>
<feGaussianBlur stdDeviation="13.6474"/>
<feComposite in2="hardAlpha" operator="out"/>
<feColorMatrix type="matrix" values="0 0 0 0 0.505882 0 0 0 0 0.290196 0 0 0 0 0.964706 0 0 0 1 0"/>
<feBlend mode="normal" in2="BackgroundImageFix" result="effect1_dropShadow_309_883"/>
<feBlend mode="normal" in="SourceGraphic" in2="effect1_dropShadow_309_883" result="shape"/>
</filter>
<filter id="filter6_d_309_883" x="166.571" y="53.3509" width="85.9695" height="76.3118" filterUnits="userSpaceOnUse" color-interpolation-filters="sRGB">
<feFlood flood-opacity="0" result="BackgroundImageFix"/>
<feColorMatrix in="SourceAlpha" type="matrix" values="0 0 0 0 0 0 0 0 0 0 0 0 0 0 0 0 0 0 127 0" result="hardAlpha"/>
<feOffset/>
<feGaussianBlur stdDeviation="13.6474"/>
<feComposite in2="hardAlpha" operator="out"/>
<feColorMatrix type="matrix" values="0 0 0 0 0.505882 0 0 0 0 0.290196 0 0 0 0 0.960784 0 0 0 1 0"/>
<feBlend mode="normal" in2="BackgroundImageFix" result="effect1_dropShadow_309_883"/>
<feBlend mode="normal" in="SourceGraphic" in2="effect1_dropShadow_309_883" result="shape"/>
</filter>
<filter id="filter7_d_309_883" x="191.513" y="33.5488" width="97.3312" height="93.8246" filterUnits="userSpaceOnUse" color-interpolation-filters="sRGB">
<feFlood flood-opacity="0" result="BackgroundImageFix"/>
<feColorMatrix in="SourceAlpha" type="matrix" values="0 0 0 0 0 0 0 0 0 0 0 0 0 0 0 0 0 0 127 0" result="hardAlpha"/>
<feOffset/>
<feGaussianBlur stdDeviation="13.6474"/>
<feComposite in2="hardAlpha" operator="out"/>
<feColorMatrix type="matrix" values="0 0 0 0 0.00392157 0 0 0 0 0.678431 0 0 0 0 0.843137 0 0 0 1 0"/>
<feBlend mode="normal" in2="BackgroundImageFix" result="effect1_dropShadow_309_883"/>
<feBlend mode="normal" in="SourceGraphic" in2="effect1_dropShadow_309_883" result="shape"/>
</filter>
<filter id="filter8_d_309_883" x="228.902" y="34.5572" width="111.603" height="106.364" filterUnits="userSpaceOnUse" color-interpolation-filters="sRGB">
<feFlood flood-opacity="0" result="BackgroundImageFix"/>
<feColorMatrix in="SourceAlpha" type="matrix" values="0 0 0 0 0 0 0 0 0 0 0 0 0 0 0 0 0 0 127 0" result="hardAlpha"/>
<feOffset/>
<feGaussianBlur stdDeviation="13.6474"/>
<feComposite in2="hardAlpha" operator="out"/>
<feColorMatrix type="matrix" values="0 0 0 0 0 0 0 0 0 0.678431 0 0 0 0 0.843137 0 0 0 1 0"/>
<feBlend mode="normal" in2="BackgroundImageFix" result="effect1_dropShadow_309_883"/>
<feBlend mode="normal" in="SourceGraphic" in2="effect1_dropShadow_309_883" result="shape"/>
</filter>
<filter id="filter9_d_309_883" x="155.312" y="60.5977" width="212.242" height="212.242" filterUnits="userSpaceOnUse" color-interpolation-filters="sRGB">
<feFlood flood-opacity="0" result="BackgroundImageFix"/>
<feColorMatrix in="SourceAlpha" type="matrix" values="0 0 0 0 0 0 0 0 0 0 0 0 0 0 0 0 0 0 127 0" result="hardAlpha"/>
<feOffset/>
<feGaussianBlur stdDeviation="13.6474"/>
<feComposite in2="hardAlpha" operator="out"/>
<feColorMatrix type="matrix" values="0 0 0 0 0.74902 0 0 0 0 0.976471 0 0 0 0 0.811765 0 0 0 1 0"/>
<feBlend mode="normal" in2="BackgroundImageFix" result="effect1_dropShadow_309_883"/>
<feBlend mode="normal" in="SourceGraphic" in2="effect1_dropShadow_309_883" result="shape"/>
</filter>
<filter id="filter10_d_309_883" x="430.754" y="166.261" width="458.773" height="324.081" filterUnits="userSpaceOnUse" color-interpolation-filters="sRGB">
<feFlood flood-opacity="0" result="BackgroundImageFix"/>
<feColorMatrix in="SourceAlpha" type="matrix" values="0 0 0 0 0 0 0 0 0 0 0 0 0 0 0 0 0 0 127 0" result="hardAlpha"/>
<feOffset/>
<feGaussianBlur stdDeviation="21.6539"/>
<feComposite in2="hardAlpha" operator="out"/>
<feColorMatrix type="matrix" values="0 0 0 0 0.74902 0 0 0 0 0.976471 0 0 0 0 0.811765 0 0 0 1 0"/>
<feBlend mode="normal" in2="BackgroundImageFix" result="effect1_dropShadow_309_883"/>
<feBlend mode="normal" in="SourceGraphic" in2="effect1_dropShadow_309_883" result="shape"/>
</filter>
<filter id="filter11_d_309_883" x="252.721" y="0.142977" width="556.924" height="440.157" filterUnits="userSpaceOnUse" color-interpolation-filters="sRGB">
<feFlood flood-opacity="0" result="BackgroundImageFix"/>
<feColorMatrix in="SourceAlpha" type="matrix" values="0 0 0 0 0 0 0 0 0 0 0 0 0 0 0 0 0 0 127 0" result="hardAlpha"/>
<feOffset/>
<feGaussianBlur stdDeviation="9.09829"/>
<feComposite in2="hardAlpha" operator="out"/>
<feColorMatrix type="matrix" values="0 0 0 0 0.505882 0 0 0 0 0.290196 0 0 0 0 0.964706 0 0 0 1 0"/>
<feBlend mode="normal" in2="BackgroundImageFix" result="effect1_dropShadow_309_883"/>
<feBlend mode="normal" in="SourceGraphic" in2="effect1_dropShadow_309_883" result="shape"/>
</filter>
<filter id="filter12_biii_309_883" x="678.88" y="30.7051" width="163.769" height="445.316" filterUnits="userSpaceOnUse" color-interpolation-filters="sRGB">
<feFlood flood-opacity="0" result="BackgroundImageFix"/>
<feGaussianBlur in="BackgroundImage" stdDeviation="13.6474"/>
<feComposite in2="SourceAlpha" operator="in" result="effect1_backgroundBlur_309_883"/>
<feBlend mode="normal" in="SourceGraphic" in2="effect1_backgroundBlur_309_883" result="shape"/>
<feColorMatrix in="SourceAlpha" type="matrix" values="0 0 0 0 0 0 0 0 0 0 0 0 0 0 0 0 0 0 127 0" result="hardAlpha"/>
<feOffset dy="2.72949"/>
<feGaussianBlur stdDeviation="1.36474"/>
<feComposite in2="hardAlpha" operator="arithmetic" k2="-1" k3="1"/>
<feColorMatrix type="matrix" values="0 0 0 0 1 0 0 0 0 1 0 0 0 0 1 0 0 0 0.08 0"/>
<feBlend mode="normal" in2="shape" result="effect2_innerShadow_309_883"/>
<feColorMatrix in="SourceAlpha" type="matrix" values="0 0 0 0 0 0 0 0 0 0 0 0 0 0 0 0 0 0 127 0" result="hardAlpha"/>
<feOffset dy="3.63932"/>
<feGaussianBlur stdDeviation="1.81966"/>
<feComposite in2="hardAlpha" operator="arithmetic" k2="-1" k3="1"/>
<feColorMatrix type="matrix" values="0 0 0 0 1 0 0 0 0 1 0 0 0 0 1 0 0 0 0.1 0"/>
<feBlend mode="normal" in2="effect2_innerShadow_309_883" result="effect3_innerShadow_309_883"/>
<feColorMatrix in="SourceAlpha" type="matrix" values="0 0 0 0 0 0 0 0 0 0 0 0 0 0 0 0 0 0 127 0" result="hardAlpha"/>
<feOffset dy="0.909829"/>
<feGaussianBlur stdDeviation="0.454915"/>
<feComposite in2="hardAlpha" operator="arithmetic" k2="-1" k3="1"/>
<feColorMatrix type="matrix" values="0 0 0 0 1 0 0 0 0 1 0 0 0 0 1 0 0 0 0.15 0"/>
<feBlend mode="normal" in2="effect3_innerShadow_309_883" result="effect4_innerShadow_309_883"/>
</filter>
<filter id="filter13_biii_309_883" x="399.473" y="30.7051" width="273.642" height="445.312" filterUnits="userSpaceOnUse" color-interpolation-filters="sRGB">
<feFlood flood-opacity="0" result="BackgroundImageFix"/>
<feGaussianBlur in="BackgroundImage" stdDeviation="13.6474"/>
<feComposite in2="SourceAlpha" operator="in" result="effect1_backgroundBlur_309_883"/>
<feBlend mode="normal" in="SourceGraphic" in2="effect1_backgroundBlur_309_883" result="shape"/>
<feColorMatrix in="SourceAlpha" type="matrix" values="0 0 0 0 0 0 0 0 0 0 0 0 0 0 0 0 0 0 127 0" result="hardAlpha"/>
<feOffset dy="2.72949"/>
<feGaussianBlur stdDeviation="1.36474"/>
<feComposite in2="hardAlpha" operator="arithmetic" k2="-1" k3="1"/>
<feColorMatrix type="matrix" values="0 0 0 0 1 0 0 0 0 1 0 0 0 0 1 0 0 0 0.08 0"/>
<feBlend mode="normal" in2="shape" result="effect2_innerShadow_309_883"/>
<feColorMatrix in="SourceAlpha" type="matrix" values="0 0 0 0 0 0 0 0 0 0 0 0 0 0 0 0 0 0 127 0" result="hardAlpha"/>
<feOffset dy="3.63932"/>
<feGaussianBlur stdDeviation="1.81966"/>
<feComposite in2="hardAlpha" operator="arithmetic" k2="-1" k3="1"/>
<feColorMatrix type="matrix" values="0 0 0 0 1 0 0 0 0 1 0 0 0 0 1 0 0 0 0.1 0"/>
<feBlend mode="normal" in2="effect2_innerShadow_309_883" result="effect3_innerShadow_309_883"/>
<feColorMatrix in="SourceAlpha" type="matrix" values="0 0 0 0 0 0 0 0 0 0 0 0 0 0 0 0 0 0 127 0" result="hardAlpha"/>
<feOffset dy="0.909829"/>
<feGaussianBlur stdDeviation="0.454915"/>
<feComposite in2="hardAlpha" operator="arithmetic" k2="-1" k3="1"/>
<feColorMatrix type="matrix" values="0 0 0 0 1 0 0 0 0 1 0 0 0 0 1 0 0 0 0.15 0"/>
<feBlend mode="normal" in2="effect3_innerShadow_309_883" result="effect4_innerShadow_309_883"/>
</filter>
<filter id="filter14_biii_309_883" x="-27.0988" y="29.7051" width="445.797" height="445.796" filterUnits="userSpaceOnUse" color-interpolation-filters="sRGB">
<feFlood flood-opacity="0" result="BackgroundImageFix"/>
<feGaussianBlur in="BackgroundImage" stdDeviation="13.6474"/>
<feComposite in2="SourceAlpha" operator="in" result="effect1_backgroundBlur_309_883"/>
<feBlend mode="normal" in="SourceGraphic" in2="effect1_backgroundBlur_309_883" result="shape"/>
<feColorMatrix in="SourceAlpha" type="matrix" values="0 0 0 0 0 0 0 0 0 0 0 0 0 0 0 0 0 0 127 0" result="hardAlpha"/>
<feOffset dy="2.72949"/>
<feGaussianBlur stdDeviation="1.36474"/>
<feComposite in2="hardAlpha" operator="arithmetic" k2="-1" k3="1"/>
<feColorMatrix type="matrix" values="0 0 0 0 1 0 0 0 0 1 0 0 0 0 1 0 0 0 0.08 0"/>
<feBlend mode="normal" in2="shape" result="effect2_innerShadow_309_883"/>
<feColorMatrix in="SourceAlpha" type="matrix" values="0 0 0 0 0 0 0 0 0 0 0 0 0 0 0 0 0 0 127 0" result="hardAlpha"/>
<feOffset dy="3.63932"/>
<feGaussianBlur stdDeviation="1.81966"/>
<feComposite in2="hardAlpha" operator="arithmetic" k2="-1" k3="1"/>
<feColorMatrix type="matrix" values="0 0 0 0 1 0 0 0 0 1 0 0 0 0 1 0 0 0 0.1 0"/>
<feBlend mode="normal" in2="effect2_innerShadow_309_883" result="effect3_innerShadow_309_883"/>
<feColorMatrix in="SourceAlpha" type="matrix" values="0 0 0 0 0 0 0 0 0 0 0 0 0 0 0 0 0 0 127 0" result="hardAlpha"/>
<feOffset dy="0.909829"/>
<feGaussianBlur stdDeviation="0.454915"/>
<feComposite in2="hardAlpha" operator="arithmetic" k2="-1" k3="1"/>
<feColorMatrix type="matrix" values="0 0 0 0 1 0 0 0 0 1 0 0 0 0 1 0 0 0 0.15 0"/>
<feBlend mode="normal" in2="effect3_innerShadow_309_883" result="effect4_innerShadow_309_883"/>
</filter>
<linearGradient id="paint0_linear_309_883" x1="761.993" y1="58" x2="761.993" y2="448.727" gradientUnits="userSpaceOnUse">
<stop stop-color="white"/>
<stop offset="1" stop-color="white" stop-opacity="0"/>
</linearGradient>
<linearGradient id="paint1_linear_309_883" x1="536.294" y1="58" x2="536.294" y2="448.722" gradientUnits="userSpaceOnUse">
<stop stop-color="white"/>
<stop offset="1" stop-color="white" stop-opacity="0"/>
</linearGradient>
<linearGradient id="paint2_linear_309_883" x1="195.8" y1="57" x2="195.8" y2="448.206" gradientUnits="userSpaceOnUse">
<stop stop-color="white"/>
<stop offset="1" stop-color="white" stop-opacity="0"/>
</linearGradient>
</defs>
</svg>
