<svg width="155" height="40" viewBox="0 0 155 40" fill="none" xmlns="http://www.w3.org/2000/svg">
<g clip-path="url(#clip0_1_27)">
<path d="M23.9443 33.0672V11.9783H32.578C34.9212 11.9783 36.725 12.4418 37.9896 13.3688C39.2542 14.2958 39.8866 15.6718 39.8866 17.4967C39.8866 18.6652 39.6447 19.6308 39.1613 20.3936C38.6778 21.1564 38.0687 21.673 37.3341 21.9434V22.0014C38.2361 22.262 38.9939 22.8124 39.6076 23.6525C40.2213 24.483 40.5281 25.6078 40.5281 27.0273C40.5281 28.9295 39.8354 30.4118 38.4499 31.4739C37.0645 32.5361 35.2234 33.0672 32.9266 33.0672H23.9443ZM29.6211 29.142H32.3269C33.1544 29.142 33.7635 28.9102 34.1541 28.4467C34.5446 27.9736 34.7399 27.3363 34.7399 26.5348C34.7399 25.7623 34.5446 25.1443 34.1541 24.6808C33.7635 24.2077 33.1544 23.9711 32.3269 23.9711H29.6211V29.142ZM29.6211 20.524H32.0061C32.8058 20.524 33.3822 20.326 33.7356 19.9301C34.089 19.5342 34.2656 18.9742 34.2656 18.2499C34.2656 17.5354 34.089 16.985 33.7356 16.5988C33.3822 16.2029 32.8058 16.0049 32.0061 16.0049H29.6211V20.524ZM43.4705 33.0672V18.221H49.1054V33.0672H43.4705ZM43.1358 14.122C43.1358 13.2916 43.4054 12.5963 43.9448 12.0363C44.4934 11.4762 45.2792 11.1962 46.3019 11.1962C47.3155 11.1962 48.0918 11.4762 48.6312 12.0363C49.1798 12.5963 49.4542 13.2916 49.4542 14.122C49.4542 14.9525 49.1798 15.6525 48.6312 16.2222C48.0826 16.7919 47.2969 17.0767 46.274 17.0767C45.2698 17.0767 44.4934 16.7919 43.9448 16.2222C43.4054 15.6525 43.1358 14.9525 43.1358 14.122ZM51.8386 33.0672V29.6634L57.4735 22.4358H51.9781V18.221H64.824V21.5958L59.1054 28.9247H65.2842V33.0672H51.8386ZM67.8779 33.0672V18.221H73.2897L73.3454 19.9012H73.4291C73.8104 19.2445 74.3682 18.7473 75.1028 18.4092C75.8374 18.0713 76.6232 17.9024 77.46 17.9024C78.4922 17.9024 79.3941 18.1341 80.1658 18.5976C80.9377 19.0515 81.4816 19.6887 81.7977 20.5094H81.8396C82.2766 19.6984 82.9554 19.0611 83.8759 18.5976C84.8058 18.1245 85.7635 17.8879 86.7492 17.8879C88.1718 17.8879 89.3387 18.3707 90.2501 19.3362C91.1613 20.2923 91.6169 21.8854 91.6169 24.116V33.0672H86.0239V24.1305C86.0239 23.4835 85.8983 22.996 85.6473 22.6676C85.4056 22.3296 85.029 22.1559 84.5176 22.1462C84.062 22.1462 83.6667 22.2813 83.332 22.5517C82.9972 22.8124 82.7323 23.1987 82.5369 23.7105V33.0672H76.9439V24.1884C76.9439 23.5125 76.8184 23.0056 76.5673 22.6676C76.3162 22.32 75.9211 22.1462 75.3818 22.1462C74.9355 22.1462 74.5496 22.2765 74.2241 22.5373C73.8987 22.7883 73.6477 23.1842 73.4709 23.7249V33.0672H67.8779ZM94.3083 25.8541V25.3907C94.3083 23.0538 95.0475 21.1998 96.5259 19.8288C98.0044 18.4576 99.892 17.772 102.189 17.772C104.485 17.772 106.294 18.4237 107.614 19.7273C108.944 21.0309 109.609 22.8415 109.609 25.1589V26.8245H97.9486V24.116H104.155V23.8263C104.165 23.2179 103.988 22.7111 103.625 22.3055C103.272 21.8999 102.765 21.6972 102.105 21.6972C101.38 21.6972 100.817 21.9723 100.417 22.5228C100.027 23.0634 99.8316 23.8939 99.8316 25.0141V26.1437C99.8316 27.2543 100.05 28.0847 100.487 28.6351C100.924 29.1855 101.538 29.4606 102.328 29.4606C102.96 29.4606 103.5 29.2868 103.946 28.9393C104.402 28.5916 104.769 28.1957 105.048 27.7515L109.302 29.8227C108.837 31.0007 108.005 31.9084 106.805 32.5457C105.615 33.1831 104.16 33.5017 102.44 33.5017C99.9384 33.5017 97.9579 32.8161 96.498 31.445C95.0381 30.0641 94.3083 28.2005 94.3083 25.8541ZM111.533 25.8686V25.4051C111.533 23.1745 112.124 21.3737 113.304 20.0025C114.495 18.6217 116.024 17.9313 117.893 17.9313C118.777 17.9313 119.544 18.0906 120.195 18.4092C120.854 18.7279 121.352 19.1383 121.688 19.6404V11.1672H127.239V33.0672H121.827L121.771 31.387H121.715C121.427 31.9568 120.939 32.4299 120.25 32.8065C119.572 33.1733 118.791 33.3569 117.907 33.3569C115.908 33.3569 114.346 32.6665 113.221 31.2856C112.096 29.9048 111.533 28.0992 111.533 25.8686ZM117.21 26.1148C117.21 27.0901 117.405 27.8578 117.796 28.4178C118.195 28.9778 118.763 29.2579 119.497 29.2579C120.018 29.2579 120.459 29.113 120.822 28.8233C121.185 28.524 121.454 28.1522 121.632 27.7081V23.5656C121.464 23.1214 121.208 22.7544 120.864 22.4649C120.53 22.1751 120.078 22.0303 119.511 22.0303C118.795 22.0303 118.233 22.3104 117.824 22.8704C117.414 23.4304 117.21 24.1981 117.21 25.1734V26.1148ZM130.711 33.0672V18.221H136.345V33.0672H130.711ZM130.376 14.122C130.376 13.2916 130.645 12.5963 131.184 12.0363C131.733 11.4762 132.52 11.1962 133.542 11.1962C134.556 11.1962 135.332 11.4762 135.871 12.0363C136.42 12.5963 136.694 13.2916 136.694 14.122C136.694 14.9525 136.42 15.6525 135.871 16.2222C135.323 16.7919 134.537 17.0767 133.515 17.0767C132.51 17.0767 131.733 16.7919 131.184 16.2222C130.645 15.6525 130.376 14.9525 130.376 14.122ZM139.191 28.7075C139.191 26.9983 139.823 25.7237 141.087 24.8837C142.352 24.0436 143.956 23.6236 145.899 23.6236H148.633V22.9283C148.633 22.4358 148.512 22.0399 148.271 21.7406C148.038 21.4413 147.615 21.2917 147.001 21.2917C146.387 21.2917 145.95 21.4171 145.69 21.6681C145.439 21.9097 145.313 22.2331 145.313 22.6386V22.9573L139.957 22.9428V22.6386C139.957 21.1613 140.64 19.9881 142.008 19.1189C143.384 18.2403 145.15 17.8009 147.308 17.8009C149.503 17.8009 151.199 18.221 152.398 19.0611C153.608 19.8914 154.212 21.2192 154.212 23.0442V29.8083C154.212 30.3972 154.268 30.9622 154.379 31.5029C154.491 32.034 154.644 32.4829 154.84 32.8499V33.0672H149.316C149.205 32.8547 149.112 32.5844 149.037 32.2561C148.964 31.9181 148.912 31.5946 148.884 31.2856C148.623 31.8071 148.079 32.2802 147.252 32.705C146.425 33.1203 145.411 33.3278 144.211 33.3278C142.742 33.3278 141.538 32.9512 140.599 32.1982C139.66 31.4353 139.191 30.2718 139.191 28.7075ZM144.769 28.1716C144.769 28.664 144.904 29.0695 145.174 29.3882C145.444 29.7068 145.876 29.8662 146.471 29.8662C147.15 29.8662 147.679 29.6538 148.061 29.2288C148.442 28.7944 148.633 28.2294 148.633 27.5342V26.6072H147.043C146.243 26.6072 145.662 26.7376 145.299 26.9983C144.947 27.2494 144.769 27.6405 144.769 28.1716Z" fill="#101010"/>
<path d="M12.7703 25.5251H7.98141V33.0967H12.7703V25.5251Z" fill="black"/>
<path d="M20.7517 17.5485H15.9628V33.0655H20.7517V17.5485Z" fill="black"/>
<path d="M0 0H39.9071V3.19064H0V0Z" fill="#F40F0F"/>
<path d="M0 39.883V0H3.19257V39.883H0Z" fill="#F40F0F"/>
<path d="M0 36.6924H39.9071V39.883H0V36.6924Z" fill="#F40F0F"/>
<path d="M36.7145 9.38424V0H39.9071V9.38424H36.7145Z" fill="#F40F0F"/>
</g>
<defs>
<clipPath id="clip0_1_27">
<rect width="155" height="39.883" fill="white"/>
</clipPath>
</defs>
</svg>
