<?xml version="1.0" encoding="utf-8"?>
<!-- Generator: Adobe Illustrator 17.1.0, SVG Export Plug-In . SVG Version: 6.00 Build 0)  -->
<!DOCTYPE svg PUBLIC "-//W3C//DTD SVG 1.1//EN" "http://www.w3.org/Graphics/SVG/1.1/DTD/svg11.dtd">
<svg version="1.1" id="Слой_1" xmlns="http://www.w3.org/2000/svg" xmlns:xlink="http://www.w3.org/1999/xlink" x="0px" y="0px"
	 viewBox="0 0 211.8 211.8" enable-background="new 0 0 211.8 211.8" xml:space="preserve">
<rect x="0.1" y="0" fill="#BD1E1E" width="211.8" height="211.8"/>
<g>
	<path fill="#FFFFFF" d="M112.2,148.3c3.6,0,6.5-2.9,6.5-6.5c0-3.6-2.9-6.5-6.5-6.5c-3.6,0-6.5,2.9-6.5,6.5
		C105.7,145.4,108.6,148.3,112.2,148.3"/>
	<path fill="#FFFFFF" d="M178.8,105.9c0,13.7-6,24-19.4,24c-13.6,0-19.7-9.8-19.7-24c0-13.4,6.2-24,19.2-24
		C172.7,81.9,178.8,92.4,178.8,105.9 M202.1,106.4c0-26-17.3-43.9-42.8-43.9c-26.6,0-42.8,18.7-42.8,44.4c0,24.6,18,42.4,42.8,42.4
		C184.2,149.3,202.1,130.8,202.1,106.4 M77.2,120.3c0,5.8-3.6,9.5-11.6,9.5H45.4v-16.9h20.2C73.3,112.9,77.2,115.3,77.2,120.3
		 M103,120.3c0-18.7-14.5-21.1-28.9-21.1H45.4V82.1h31.1l0.4,11.3h20.9V64.2H11.2v18.5h13.4v46.6H11.2v18.5h57.2
		C91.6,147.8,103,136.9,103,120.3"/>
</g>
</svg>
